<svg width="387" height="34" viewBox="0 0 387 34" fill="none" xmlns="http://www.w3.org/2000/svg">
<g clip-path="url(#clip0_212_1120)">
<path fill-rule="evenodd" clip-rule="evenodd" d="M4.75096 10.0357C6.59484 10.0357 8.08962 11.5305 8.08962 13.3744V10.0357H11.4283C13.2722 10.0357 14.767 11.5305 14.767 13.3744C14.767 15.2182 13.2722 16.713 11.4283 16.713C13.2722 16.713 14.767 18.2078 14.767 20.0517C14.767 20.9673 14.3984 21.7968 13.8016 22.3999L13.7891 22.4125L13.778 22.4235C13.1747 23.0212 12.3446 23.3904 11.4283 23.3904C10.5182 23.3904 9.69315 23.0262 9.09089 22.4357C9.08308 22.428 9.07526 22.4203 9.06748 22.4125C9.06017 22.4052 9.0529 22.3978 9.04565 22.3905C8.45434 21.7881 8.08962 20.9625 8.08962 20.0517C8.08962 21.8956 6.59484 23.3904 4.75096 23.3904C2.90706 23.3904 1.41229 21.8956 1.41229 20.0517V16.713H4.75096C2.90706 16.713 1.41229 15.2182 1.41229 13.3744C1.41229 11.5305 2.90706 10.0357 4.75096 10.0357ZM7.42189 13.3744C7.42189 14.8495 6.22608 16.0453 4.75096 16.0453V10.7034C6.22608 10.7034 7.42189 11.8993 7.42189 13.3744ZM14.0992 20.0517C14.0992 18.5766 12.9034 17.3808 11.4283 17.3808C9.95317 17.3808 8.75736 18.5766 8.75736 20.0517H14.0992ZM2.08003 17.3808V20.0517C2.08003 21.5268 3.27584 22.7226 4.75096 22.7226C6.22608 22.7226 7.42189 21.5268 7.42189 20.0517V17.3808H2.08003ZM8.75736 16.0453V10.7034H11.4283C12.9034 10.7034 14.0992 11.8993 14.0992 13.3744C14.0992 14.8495 12.9034 16.0453 11.4283 16.0453H8.75736Z" fill="#263238"/>
</g>
<g clip-path="url(#clip1_212_1120)">
<path fill-rule="evenodd" clip-rule="evenodd" d="M66.1776 13.3615L62.8437 16.6619C63.5106 17.3221 64.2723 17.8784 65.1029 18.3137C65.3324 18.9165 65.6923 19.4819 66.1824 19.967C68.0263 21.7924 71.0158 21.7924 72.8597 19.967C73.3498 19.4819 73.7097 18.9165 73.9392 18.3137C74.7698 17.8784 75.5315 17.3221 76.1984 16.6619L72.8672 13.3642C72.8647 13.3617 72.8622 13.3593 72.8597 13.3568C71.0158 11.5315 68.0263 11.5315 66.1824 13.3568C66.1808 13.3584 66.1792 13.36 66.1776 13.3615ZM72.5407 18.9091C71.5692 19.2337 70.5493 19.4 69.5211 19.4C68.4928 19.4 67.473 19.2337 66.5014 18.9091C66.6067 19.0474 66.7229 19.1801 66.8501 19.306C68.3252 20.7663 70.7169 20.7663 72.192 19.306C72.3192 19.1801 72.4354 19.0474 72.5407 18.9091ZM66.9186 13.9517C67.1691 14.1156 67.4355 14.2558 67.7142 14.3701C68.287 14.6049 68.901 14.7258 69.5211 14.7258C70.1411 14.7258 70.7551 14.6049 71.3279 14.3701C71.6066 14.2558 71.873 14.1156 72.1235 13.9517C70.6668 12.5796 68.3753 12.5796 66.9186 13.9517Z" fill="#3B4158"/>
</g>
<g clip-path="url(#clip2_212_1120)">
<path d="M140.299 15.2161C140.301 15.2022 140.301 15.1881 140.299 15.1742C140.301 15.1628 140.301 15.1513 140.299 15.1399L140.163 14.1608C140.144 14.0437 140.091 13.9342 140.012 13.8446L139.988 13.8179L139.946 13.776L137.591 11.7873L137.657 11.8521C137.603 11.7887 137.535 11.738 137.458 11.7037C137.382 11.6694 137.298 11.6524 137.214 11.654H136.499C136.382 11.6517 136.269 11.688 136.176 11.7568C136.079 11.6884 135.962 11.6523 135.842 11.654H135.127C135.033 11.6525 134.941 11.6753 134.859 11.7201C134.777 11.7649 134.708 11.8302 134.661 11.9092C134.587 12.0221 134.559 12.1581 134.583 12.2902L134.672 12.9074C134.613 12.8745 134.546 12.8574 134.478 12.8579H131.015C130.891 12.8586 130.77 12.8943 130.666 12.9607C130.565 13.0225 130.484 13.111 130.433 13.216L130.164 12.9912C130.059 12.8955 129.92 12.8436 129.776 12.8464H124.343C124.218 12.8487 124.096 12.8828 123.989 12.9455C123.843 13.0295 123.736 13.1662 123.69 13.3265L121.965 18.984C121.933 19.0772 121.929 19.1777 121.956 19.2727C121.982 19.3677 122.037 19.4529 122.112 19.5174C122.132 19.5338 122.153 19.5491 122.175 19.5631C122.175 19.5631 122.14 19.5402 122.12 19.5212L124.475 21.5137C124.575 21.6036 124.705 21.6538 124.84 21.6546H130.316C130.441 21.6514 130.563 21.616 130.67 21.5518C130.73 21.5195 130.784 21.4769 130.829 21.426L130.848 21.3994L130.879 21.3613L130.903 21.3194L131.159 21.5365C131.257 21.6229 131.385 21.6704 131.517 21.6699H137.004C137.129 21.6658 137.251 21.6304 137.357 21.567C137.416 21.5327 137.47 21.4904 137.517 21.4413L137.536 21.4146L137.567 21.3765C137.584 21.3524 137.598 21.3269 137.61 21.3003C137.623 21.2772 137.633 21.253 137.641 21.2279L139.215 16.0619V16.0162C139.217 15.9984 139.217 15.9806 139.215 15.9628V15.9285C139.217 15.9172 139.217 15.9056 139.215 15.8942C139.217 15.8702 139.217 15.846 139.215 15.8219H139.72C139.764 15.8258 139.808 15.8258 139.852 15.8219H139.887C139.916 15.8135 139.943 15.802 139.969 15.7876H140.008L140.078 15.7342L140.109 15.7114L140.163 15.6428V15.62L140.202 15.5552C140.2 15.5426 140.2 15.5297 140.202 15.5171C140.2 15.5109 140.2 15.5042 140.202 15.498C140.21 15.4757 140.217 15.4528 140.222 15.4294C140.22 15.4219 140.22 15.4141 140.222 15.4066C140.22 15.3952 140.22 15.3837 140.222 15.3723C140.222 15.3723 140.299 15.2237 140.299 15.2161Z" fill="black"/>
<path d="M129.935 13.2807C129.956 13.299 129.97 13.3231 129.976 13.3496C129.983 13.3762 129.98 13.404 129.97 13.4293L128.249 19.083C128.227 19.1447 128.182 19.1964 128.124 19.2278C128.077 19.2589 128.022 19.2773 127.965 19.2811H122.493C122.447 19.2789 122.402 19.26 122.369 19.2278C122.349 19.2098 122.335 19.1864 122.329 19.1606C122.323 19.1349 122.324 19.1078 122.334 19.083L124.059 13.4293C124.079 13.3668 124.122 13.3138 124.18 13.2807C124.228 13.2518 124.283 13.2349 124.339 13.2312H129.811C129.857 13.2316 129.902 13.2494 129.935 13.2807ZM127.079 17.9439L128.109 14.5684H125.225L124.199 17.9439H127.079ZM135.158 13.3379C135.177 13.3592 135.2 13.376 135.226 13.3872C135.252 13.3984 135.281 13.4037 135.309 13.4026H136.021C136.048 13.4029 136.074 13.3964 136.098 13.3837C136.122 13.3711 136.142 13.3527 136.157 13.3303C136.169 13.3128 136.178 13.293 136.183 13.272C136.188 13.2511 136.188 13.2294 136.184 13.2084L136.044 12.2026C136.031 12.156 136.007 12.113 135.974 12.0768C135.955 12.0556 135.932 12.0387 135.906 12.0275C135.88 12.0163 135.851 12.011 135.822 12.0121H135.111C135.084 12.0118 135.058 12.0183 135.034 12.031C135.01 12.0437 134.99 12.0621 134.975 12.0845C134.948 12.1378 134.936 12.1721 134.948 12.2026L135.092 13.2084C135.099 13.2573 135.122 13.3027 135.158 13.3379ZM137.416 12.195C137.402 12.1484 137.378 12.1054 137.346 12.0692C137.328 12.048 137.305 12.0312 137.28 12.0199C137.254 12.0087 137.226 12.0034 137.198 12.0045H136.483C136.456 12.0037 136.43 12.0101 136.407 12.0228C136.384 12.0355 136.364 12.0542 136.351 12.0768C136.325 12.1106 136.314 12.1531 136.32 12.195L136.464 13.2007C136.473 13.2492 136.496 13.2941 136.53 13.3303C136.549 13.3511 136.572 13.3677 136.598 13.3789C136.624 13.3901 136.653 13.3956 136.681 13.395H137.396C137.423 13.3954 137.449 13.3889 137.472 13.3762C137.495 13.3635 137.515 13.345 137.528 13.3226C137.542 13.3056 137.551 13.2858 137.556 13.2647C137.561 13.2436 137.561 13.2218 137.556 13.2007L137.416 12.195ZM134.532 13.7189L134.462 13.2236H131.015C130.961 13.2265 130.909 13.2436 130.864 13.2731C130.835 13.2884 130.81 13.3096 130.791 13.3353C130.771 13.3609 130.758 13.3904 130.751 13.4217L130.464 14.3665C130.452 14.3901 130.448 14.4166 130.452 14.4425C130.457 14.4683 130.469 14.4923 130.487 14.5113C130.52 14.5415 130.562 14.5591 130.607 14.5608H134.797L133.767 17.9363H129.589C129.535 17.9375 129.483 17.9533 129.438 17.982C129.383 18.0162 129.343 18.0691 129.325 18.1306L129.033 19.0754C129.024 19.0997 129.021 19.126 129.026 19.1515C129.031 19.1771 129.043 19.2008 129.061 19.2202C129.092 19.2524 129.136 19.2715 129.181 19.2735H134.668C134.725 19.2687 134.78 19.2504 134.828 19.2202C134.885 19.1886 134.928 19.1369 134.948 19.0754L136.526 13.9094H134.75C134.722 13.9099 134.694 13.9048 134.668 13.8943C134.642 13.8838 134.618 13.8682 134.598 13.8484C134.566 13.8138 134.543 13.7719 134.532 13.7265V13.7189Z" fill="white"/>
</g>
<g clip-path="url(#clip3_212_1120)">
<path d="M199.394 13.1779C199.394 13.1892 199.394 13.2033 199.391 13.2118C199.376 13.3218 199.376 13.4319 199.385 13.5448C199.391 13.573 199.397 13.6012 199.42 13.6238C199.459 13.6662 199.517 13.6577 199.541 13.6069C199.553 13.5815 199.553 13.5561 199.547 13.5307C199.517 13.4234 199.512 13.3105 199.509 13.2005C199.509 13.1948 199.509 13.1864 199.509 13.1779C199.541 13.1751 199.57 13.1722 199.597 13.1722C199.617 13.1694 199.635 13.1666 199.65 13.1581C199.694 13.1356 199.694 13.0876 199.647 13.065C199.629 13.0565 199.606 13.0537 199.585 13.0537C199.512 13.0565 199.438 13.0565 199.364 13.0565C199.338 13.0565 199.312 13.0594 199.285 13.0622C199.27 13.065 199.253 13.065 199.241 13.0735C199.22 13.0819 199.209 13.096 199.209 13.1158C199.212 13.1356 199.22 13.1468 199.241 13.1553C199.253 13.1638 199.267 13.1666 199.282 13.1666C199.317 13.1694 199.356 13.1751 199.394 13.1779ZM200.203 13.3077C200.203 13.3105 200.205 13.3134 200.205 13.3134C200.217 13.3896 200.229 13.463 200.238 13.5363C200.241 13.5617 200.244 13.5843 200.261 13.6041C200.3 13.652 200.358 13.6464 200.385 13.5956C200.397 13.5702 200.4 13.5448 200.394 13.5166C200.376 13.4319 200.367 13.3472 200.35 13.2654C200.338 13.2146 200.323 13.1666 200.308 13.1214C200.3 13.0932 200.279 13.0735 200.244 13.0706C200.208 13.065 200.182 13.0819 200.167 13.1073C200.15 13.1299 200.135 13.1525 200.123 13.1779C200.103 13.2231 200.085 13.2682 200.061 13.3105C200.058 13.3218 200.056 13.3303 200.05 13.3388C200.047 13.3331 200.044 13.3303 200.044 13.3303C200.006 13.2597 199.97 13.1892 199.932 13.1214C199.926 13.1158 199.923 13.1102 199.92 13.1045C199.903 13.0791 199.882 13.065 199.85 13.065C199.82 13.0678 199.797 13.0848 199.782 13.1102C199.776 13.1214 199.776 13.1299 199.773 13.1412C199.761 13.2315 199.747 13.3218 199.735 13.4121C199.729 13.463 199.726 13.5138 199.726 13.5646C199.723 13.5758 199.726 13.59 199.732 13.6012C199.738 13.6238 199.756 13.6379 199.779 13.6408C199.809 13.6436 199.829 13.6351 199.838 13.6125C199.847 13.5956 199.85 13.5815 199.853 13.5674C199.864 13.5166 199.873 13.4686 199.882 13.4206C199.888 13.3924 199.891 13.3698 199.9 13.3388C199.906 13.3501 199.911 13.3585 199.917 13.367C199.944 13.4009 199.97 13.4347 200.003 13.463C200.035 13.4855 200.061 13.4827 200.088 13.4573C200.094 13.4517 200.097 13.4488 200.103 13.4432C200.129 13.4037 200.161 13.3642 200.188 13.3247C200.194 13.319 200.197 13.3134 200.203 13.3077Z" fill="#3A3B7B"/>
<path d="M193.427 13.2334C193.407 13.287 193.403 13.3256 193.412 13.3578C193.423 13.4014 193.45 13.4157 193.486 13.4046C193.832 13.3227 194.589 13.5553 194.87 13.6202C194.936 13.6338 194.989 13.5519 194.944 13.4784C194.878 13.4073 194.121 13.1027 193.833 13.0861C193.719 13.0799 193.517 13.0521 193.427 13.2334Z" fill="#3A3B7B"/>
<path d="M196.387 12.2474C196.424 12.2678 196.444 12.2872 196.455 12.309C196.47 12.3375 196.462 12.3572 196.436 12.3673C196.208 12.4742 195.904 12.9346 195.782 13.0934C195.752 13.13 195.683 13.1087 195.673 13.0487C195.675 12.9808 195.944 12.4811 196.095 12.345C196.154 12.2919 196.251 12.1876 196.387 12.2474Z" fill="#3A3B7B"/>
<path d="M194.569 12.0208C194.613 11.9888 194.659 11.9776 194.682 11.9983C195.027 12.2811 195.21 12.7289 195.323 13.1388C195.327 13.1483 195.327 13.162 195.324 13.1763C195.322 13.1885 195.313 13.2015 195.298 13.2114C195.283 13.2225 195.269 13.2258 195.263 13.2163C195.112 13.0192 194.249 12.2524 194.569 12.0208Z" fill="#3A3B7B"/>
<path d="M187.274 16.9229C187.357 16.8639 187.446 16.8148 187.541 16.7767C187.641 16.7495 187.747 16.754 187.843 16.7896C187.94 16.8253 188.021 16.8901 188.076 16.9743C188.125 17.0582 188.144 17.1552 188.131 17.2505C188.117 17.3458 188.072 17.4343 188.001 17.5028C187.947 17.5582 187.885 17.6065 187.817 17.6464C187.515 17.8337 187.21 18.0107 186.905 18.198C186.843 18.2449 186.777 18.2869 186.707 18.3237C186.602 18.3742 186.482 18.3877 186.367 18.3619C186.252 18.3362 186.15 18.2727 186.079 18.1826C186.026 18.1188 185.981 18.049 185.946 17.9748C185.657 17.3924 185.358 16.8126 185.08 16.22C184.951 15.9635 184.847 15.6684 184.745 15.3837C184.702 15.3009 184.693 15.205 184.722 15.1163C184.75 15.0276 184.814 14.953 184.899 14.9086C184.984 14.8641 185.083 14.8533 185.177 14.8783C185.27 14.9033 185.349 14.9622 185.398 15.0425C185.547 15.2331 185.68 15.4357 185.793 15.6479C186.082 16.161 186.357 16.6741 186.635 17.1718C186.651 17.1993 186.669 17.2258 186.689 17.2513C186.898 17.1669 187.095 17.0565 187.274 16.9229Z" fill="#3A3B7B"/>
<path d="M190.259 16.744C189.599 17.4854 188.492 17.2981 187.936 16.3437C187.54 15.6664 187.471 14.5479 188.332 13.8424C188.515 13.6947 188.735 13.5941 188.971 13.5499C189.259 13.5102 189.553 13.5591 189.811 13.6895C190.069 13.8199 190.277 14.0251 190.406 14.276C190.876 15.0969 190.81 16.1436 190.259 16.744ZM189.992 15.0148C189.921 14.8131 189.781 14.6408 189.593 14.5274C189.487 14.4548 189.358 14.4195 189.228 14.4275C189.098 14.4354 188.975 14.4861 188.88 14.571C188.497 14.8968 188.417 15.669 188.695 16.1282C188.731 16.2031 188.783 16.2697 188.848 16.3232C188.913 16.3768 188.989 16.4161 189.072 16.4383C189.154 16.4605 189.241 16.4652 189.325 16.452C189.41 16.4387 189.49 16.4079 189.561 16.3617C189.768 16.2075 189.92 15.9952 189.996 15.7543C190.072 15.5134 190.067 15.2558 189.984 15.0174L189.992 15.0148Z" fill="#3A3B7B"/>
<path d="M192.953 15.3381C192.886 15.352 192.816 15.3529 192.748 15.3405C192.68 15.3282 192.615 15.3029 192.558 15.2662C192.507 15.2386 192.464 15.2005 192.431 15.1548C192.397 15.1091 192.375 15.0569 192.365 15.0019C192.356 14.947 192.359 14.8907 192.374 14.837C192.39 14.7833 192.418 14.7337 192.456 14.6916C192.523 14.607 192.617 14.5464 192.723 14.5197C193.002 14.4421 193.289 14.3947 193.579 14.3786C193.642 14.3715 193.707 14.3767 193.768 14.3938C193.83 14.411 193.887 14.4397 193.937 14.4785C193.987 14.5172 194.028 14.565 194.059 14.6193C194.089 14.6735 194.107 14.733 194.113 14.7942C194.197 15.095 194.206 15.4104 194.14 15.7152C193.9 16.7003 193.071 17.039 192.141 16.7234C191.88 16.6391 191.651 16.4819 191.483 16.2719C191.26 16.0191 191.101 15.7194 191.021 15.3971C190.955 15.11 190.963 14.8122 191.042 14.5283C191.121 14.2445 191.269 13.9829 191.475 13.7654C191.67 13.5291 191.924 13.343 192.213 13.2241C192.395 13.1276 192.609 13.1001 192.812 13.1472C192.858 13.1594 192.899 13.1832 192.932 13.2161C192.966 13.249 192.989 13.2898 193 13.3343C193.011 13.3788 193.01 13.4253 192.996 13.4691C192.982 13.5129 192.956 13.5523 192.921 13.5833C192.854 13.6413 192.782 13.6928 192.705 13.7372C192.467 13.8825 192.26 14.0696 192.095 14.2888C191.987 14.4306 191.913 14.5935 191.877 14.7659C191.842 14.9383 191.846 15.1161 191.889 15.2868C191.95 15.5195 192.085 15.7284 192.274 15.8845C192.862 16.3976 193.627 15.9025 193.493 15.2021C193.298 15.2483 193.127 15.297 192.953 15.3381Z" fill="#3A3B7B"/>
<path d="M196.546 16.7849C195.677 17.298 194.688 16.7849 194.472 15.7075C194.314 14.9378 194.613 13.8603 195.661 13.4498C195.884 13.3644 196.126 13.3344 196.364 13.3626C196.65 13.4129 196.913 13.5481 197.115 13.7493C197.317 13.9504 197.448 14.2073 197.489 14.4837C197.666 15.3996 197.265 16.377 196.546 16.7849ZM196.848 15.0584C196.848 14.8453 196.769 14.639 196.626 14.476C196.55 14.3752 196.439 14.3029 196.313 14.2716C196.187 14.2403 196.054 14.2517 195.936 14.3041C195.466 14.4991 195.134 15.2072 195.255 15.728C195.264 15.8097 195.292 15.8885 195.336 15.9589C195.38 16.0293 195.44 16.0896 195.511 16.1355C195.582 16.1815 195.662 16.212 195.747 16.2249C195.832 16.2378 195.918 16.2328 196.001 16.2103C196.249 16.1269 196.465 15.9711 196.616 15.7646C196.768 15.5581 196.849 15.3112 196.848 15.0584Z" fill="#3A3B7B"/>
<path d="M198.368 17.0005C198.355 17.0944 198.303 17.1794 198.225 17.2369C198.146 17.2944 198.047 17.3196 197.95 17.307C197.852 17.2944 197.763 17.2451 197.703 17.1698C197.643 17.0945 197.617 16.9994 197.63 16.9055C197.643 16.8116 197.695 16.7266 197.773 16.6691C197.852 16.6116 197.951 16.5864 198.048 16.599C198.146 16.6115 198.235 16.6609 198.295 16.7362C198.355 16.8115 198.381 16.9066 198.368 17.0005ZM198.135 13.5396C198.186 13.4651 198.261 13.4084 198.348 13.3778C198.435 13.3473 198.53 13.3447 198.619 13.3703C198.71 13.392 198.789 13.4428 198.845 13.5143C198.901 13.5857 198.93 13.6735 198.927 13.7628C198.915 13.9061 198.892 14.0484 198.86 14.1887C198.772 14.6633 198.686 15.1379 198.592 15.6074C198.55 15.7947 198.494 15.9743 198.432 16.1641C198.411 16.2234 198.375 16.2771 198.328 16.3206C198.299 16.3533 198.261 16.3784 198.219 16.3936C198.177 16.4088 198.132 16.4135 198.087 16.4074C198.043 16.4012 198 16.3844 197.964 16.3585C197.928 16.3326 197.9 16.2984 197.881 16.259C197.85 16.1885 197.832 16.1127 197.831 16.0358C197.831 15.7177 197.831 15.397 197.852 15.0763C197.888 14.6187 197.96 14.1642 198.066 13.7166C198.078 13.6567 198.102 13.5993 198.135 13.5473V13.5396Z" fill="#3A3B7B"/>
<path fill-rule="evenodd" clip-rule="evenodd" d="M186.145 19.0621C186.113 19.1297 186.105 19.2051 186.12 19.2776C186.13 19.3732 186.153 19.4673 186.187 19.5577C186.23 19.6683 186.278 19.7777 186.337 19.9126C186.35 19.9436 186.365 19.976 186.38 20.0101C186.459 20.1927 186.559 20.4262 186.693 20.7641C186.73 20.8601 186.764 20.9569 186.798 21.0543C186.811 21.0937 186.825 21.1332 186.839 21.1728C186.889 21.3135 186.975 21.4399 187.09 21.5401C187.139 21.5952 187.203 21.6354 187.275 21.6554C187.349 21.6759 187.428 21.6746 187.5 21.6517C187.573 21.6288 187.637 21.5854 187.684 21.527C187.73 21.4698 187.758 21.4009 187.763 21.3289C187.793 21.1887 187.783 21.0432 187.733 20.908C187.655 20.6835 187.567 20.4587 187.464 20.2387L187.464 20.2378C187.295 19.8937 187.124 19.552 186.944 19.2102L186.943 19.2078C186.891 19.1187 186.822 19.0391 186.741 18.9725C186.689 18.9131 186.616 18.873 186.536 18.8592C186.455 18.8451 186.37 18.8593 186.299 18.8993C186.231 18.9366 186.177 18.9935 186.145 19.0621Z" fill="#3A3B7B"/>
<path fill-rule="evenodd" clip-rule="evenodd" d="M188.719 18.2148C188.455 18.1491 188.179 18.1396 187.91 18.1868C187.702 18.2064 187.498 18.2525 187.356 18.3437C187.283 18.3901 187.225 18.4497 187.193 18.5254C187.16 18.6016 187.156 18.6886 187.183 18.7857C187.231 18.9634 187.295 19.1363 187.358 19.3085L187.368 19.3364L187.369 19.3371C187.559 19.8375 187.751 20.3363 187.945 20.8334C187.968 20.9117 188 20.9873 188.04 21.0586L188.041 21.0599C188.095 21.1484 188.164 21.2276 188.245 21.2942C188.286 21.3307 188.336 21.356 188.391 21.3673C188.446 21.3787 188.503 21.3754 188.556 21.3577C188.609 21.3401 188.656 21.3087 188.692 21.2671C188.728 21.2261 188.751 21.1768 188.759 21.1243C188.794 20.9817 188.783 20.8321 188.727 20.6958C188.71 20.6499 188.696 20.603 188.681 20.5537C188.677 20.5372 188.672 20.5205 188.667 20.5034C189.111 20.3368 189.583 20.1128 189.749 19.5918C189.814 19.4117 189.82 19.2167 189.765 19.0336C189.71 18.8502 189.597 18.6877 189.442 18.5683C189.23 18.4013 188.984 18.2807 188.719 18.2148ZM187.986 18.8539C187.995 18.8515 188.004 18.8493 188.013 18.8472C188.302 18.8036 188.598 18.8617 188.846 19.0108C188.955 19.0837 189 19.1648 189.007 19.2428C189.015 19.3231 188.985 19.4101 188.924 19.4937C188.808 19.6517 188.597 19.7782 188.407 19.8017C188.268 19.495 188.127 19.1759 187.986 18.8539Z" fill="#3A3B7B"/>
<path d="M190.481 17.6534C190.795 17.5139 191.185 17.4898 191.49 17.5879C191.567 17.6094 191.634 17.6558 191.679 17.7193C191.723 17.7824 191.744 17.8584 191.737 17.9344C191.737 17.9837 191.724 18.0323 191.7 18.0761C191.676 18.1207 191.641 18.159 191.598 18.1879C191.555 18.2167 191.506 18.2353 191.454 18.2419C191.402 18.2485 191.349 18.2431 191.3 18.226L191.296 18.2247L191.293 18.2229C191.268 18.2102 191.241 18.2007 191.213 18.1945L191.211 18.1941C190.997 18.1394 190.795 18.2301 190.721 18.3414C190.685 18.3945 190.681 18.4481 190.71 18.4969C190.742 18.5491 190.819 18.6077 190.975 18.6495C191.018 18.6608 191.062 18.6717 191.107 18.6828C191.23 18.7135 191.358 18.7453 191.482 18.7895L191.483 18.7897C192.055 18.9986 192.268 19.4314 192.195 19.8384C192.123 20.241 191.773 20.6073 191.246 20.6937C191.054 20.7345 190.855 20.7266 190.667 20.6707C190.479 20.6146 190.31 20.5124 190.176 20.374L190.172 20.3704C190.13 20.3183 190.101 20.257 190.089 20.1921C190.077 20.1334 190.083 20.0728 190.106 20.0174C190.129 19.9623 190.168 19.9146 190.218 19.8799C190.271 19.8405 190.335 19.8168 190.402 19.8119C190.468 19.807 190.535 19.8209 190.593 19.8518C190.652 19.8789 190.706 19.9134 190.755 19.9545L190.756 19.9552C190.842 20.0309 190.946 20.0506 191.046 20.0324C191.148 20.0138 191.243 19.9562 191.305 19.8797C191.366 19.8037 191.39 19.7135 191.361 19.6259C191.332 19.5376 191.244 19.4387 191.051 19.356C191 19.3355 190.948 19.3189 190.893 19.3027C190.879 19.2984 190.864 19.294 190.849 19.2896C190.808 19.2779 190.767 19.2658 190.726 19.2525C190.698 19.2433 190.671 19.2347 190.643 19.2261C190.568 19.2026 190.495 19.1797 190.424 19.149C190.271 19.0989 190.138 19.0026 190.047 18.8745C189.954 18.7459 189.908 18.592 189.914 18.436C189.915 18.0557 190.164 17.7936 190.481 17.6534Z" fill="#3A3B7B"/>
<path d="M194.47 17.6129C194.409 17.5843 194.342 17.5707 194.274 17.5734C194.206 17.5761 194.14 17.5949 194.082 17.6282C194.024 17.6613 193.975 17.7077 193.94 17.7632C193.908 17.8099 193.886 17.8621 193.875 17.917C193.864 17.9718 193.864 18.0281 193.876 18.0828C193.887 18.1531 193.9 18.2214 193.912 18.2888C193.933 18.4004 193.953 18.5094 193.966 18.6206L193.967 18.6234C193.997 18.7977 194.013 18.9741 194.014 19.1508L194.014 19.1533C194.024 19.3441 193.957 19.5312 193.825 19.6749L193.823 19.6774C193.781 19.73 193.724 19.7701 193.658 19.7932C193.593 19.8164 193.523 19.8217 193.455 19.8086C193.387 19.7955 193.324 19.7645 193.273 19.719C193.222 19.6735 193.186 19.6152 193.167 19.5509C193.128 19.4154 193.106 19.2761 193.1 19.1356L193.167 18.1176C193.168 18.1043 193.169 18.0907 193.17 18.0769C193.172 18.046 193.175 18.0145 193.176 17.9851C193.178 17.9419 193.176 17.8975 193.166 17.8554C193.155 17.8124 193.135 17.7715 193.098 17.7367C193.063 17.7022 193.014 17.6767 192.953 17.6594C192.843 17.6288 192.75 17.6298 192.672 17.6614C192.595 17.693 192.541 17.7517 192.504 17.8196C192.466 17.8868 192.442 17.9664 192.424 18.0462C192.411 18.1053 192.4 18.1675 192.39 18.2266C192.386 18.247 192.383 18.267 192.379 18.2864L192.379 18.287C192.324 18.6112 192.307 18.9405 192.33 19.2683C192.334 19.4454 192.373 19.6203 192.444 19.784C192.524 19.9951 192.668 20.1781 192.859 20.3087C193.05 20.4395 193.277 20.5116 193.512 20.5155C193.746 20.5193 193.977 20.4546 194.172 20.33C194.367 20.2056 194.518 20.0273 194.606 19.8188C194.728 19.5531 194.785 19.2641 194.773 18.9739C194.766 18.762 194.754 18.5485 194.742 18.3361C194.736 18.2319 194.73 18.128 194.725 18.0246C194.722 17.921 194.687 17.8206 194.623 17.737C194.584 17.6841 194.531 17.6415 194.47 17.6129Z" fill="#3A3B7B"/>
<path d="M196.63 19.2092C196.624 19.2167 196.617 19.2245 196.61 19.2326C196.561 18.9578 196.515 18.6831 196.469 18.408C196.452 18.3093 196.435 18.2102 196.419 18.1113L196.417 18.1003L196.411 18.0908C196.399 18.0728 196.398 18.0552 196.398 18.0177V18.0134L196.397 18.0091C196.385 17.9317 196.348 17.8596 196.293 17.8024C196.237 17.7453 196.165 17.7055 196.085 17.6883C196.006 17.6695 195.923 17.6736 195.846 17.7002C195.769 17.7266 195.703 17.7742 195.654 17.8369C195.613 17.8851 195.58 17.9384 195.555 17.9955C195.499 18.1184 195.442 18.2415 195.385 18.365L195.384 18.3672C195.242 18.6755 195.098 18.986 194.959 19.2988L194.959 19.2998C194.873 19.5027 194.803 19.7165 194.733 19.9295C194.719 19.9721 194.705 20.0146 194.69 20.057C194.665 20.1242 194.654 20.1957 194.658 20.2671C194.653 20.331 194.669 20.3948 194.704 20.4498C194.739 20.5059 194.791 20.55 194.854 20.576C194.92 20.6039 194.994 20.6098 195.064 20.5928C195.134 20.5759 195.197 20.5371 195.241 20.4825C195.298 20.4153 195.347 20.3419 195.387 20.2643C195.505 20.0328 195.618 19.7986 195.73 19.5653C195.773 19.4751 195.815 19.3943 195.863 19.3063C195.867 19.3171 195.87 19.3277 195.873 19.3383C195.924 19.5508 196.009 19.7543 196.125 19.9414C196.147 19.981 196.178 20.0156 196.215 20.0429C196.252 20.0705 196.296 20.0899 196.342 20.0997C196.388 20.1095 196.436 20.1096 196.483 20.0998C196.529 20.0901 196.572 20.0707 196.61 20.0432L196.685 19.9897L197.264 19.5217L197.229 19.7311C197.182 20.0189 197.136 20.3043 197.086 20.5897C197.054 20.7163 197.054 20.8484 197.086 20.9749C197.1 21.0461 197.136 21.1116 197.189 21.1632C197.243 21.2151 197.311 21.2504 197.386 21.2645C197.461 21.2786 197.538 21.2708 197.608 21.2421C197.677 21.2139 197.736 21.1666 197.777 21.1065C197.872 20.9928 197.932 20.8552 197.948 20.71C197.973 20.505 198 20.2972 198.028 20.0895C198.06 19.8501 198.092 19.6107 198.119 19.3759L198.119 19.3752C198.145 19.1182 198.158 18.8602 198.157 18.602C198.163 18.5204 198.141 18.4391 198.096 18.3696C198.051 18.2999 197.984 18.2457 197.905 18.2147C197.822 18.1788 197.73 18.1691 197.642 18.1873C197.554 18.2054 197.474 18.2499 197.414 18.3143C197.308 18.4091 197.208 18.5105 197.115 18.6179L197.114 18.6186C197.013 18.7399 196.912 18.8636 196.812 18.9865C196.751 19.0612 196.69 19.1358 196.63 19.2092Z" fill="#3A3B7B"/>
</g>
<g clip-path="url(#clip4_212_1120)">
<path d="M259.971 12.6032C259.971 12.7588 260.099 12.8849 260.256 12.8849H260.541C260.699 12.8849 260.827 12.7588 260.827 12.6032C260.827 12.4477 260.699 12.3215 260.541 12.3215H260.256C260.099 12.3215 259.971 12.4477 259.971 12.6032Z" fill="#212326"/>
<path d="M251.701 21.336H253.086L252.683 20.9376C252.576 20.832 252.431 20.7726 252.28 20.7726H251.701C249.496 20.7726 247.708 19.0069 247.708 16.8288C247.708 14.6507 249.496 12.885 251.701 12.885H256.264C258.469 12.885 260.256 14.6507 260.256 16.8288C260.256 19.0069 258.469 20.7726 256.264 20.7726H254.557C254.33 20.7726 254.112 20.6836 253.952 20.5251L253.479 20.0583C253.212 19.7942 252.849 19.6458 252.471 19.6458H251.701C250.126 19.6458 248.849 18.3846 248.849 16.8288C248.849 15.273 250.126 14.0118 251.701 14.0118H256.264C257.839 14.0118 259.116 15.273 259.116 16.8288C259.116 18.3846 257.839 19.6458 256.264 19.6458H255.168C254.941 19.6458 254.723 19.5568 254.563 19.3983L254.09 18.9315C253.823 18.6674 253.46 18.519 253.082 18.519H251.701C250.756 18.519 249.99 17.7623 249.99 16.8288C249.99 15.8953 250.756 15.1386 251.701 15.1386H256.264C257.209 15.1386 257.975 15.8953 257.975 16.8288C257.975 17.7509 257.227 18.5005 256.298 18.5187L256.298 18.519H255.881C255.654 18.519 255.436 18.43 255.276 18.2715L254.803 17.8047C254.584 17.588 254.3 17.4492 253.997 17.4063L253.982 17.3922H251.701C251.386 17.3922 251.131 17.1399 251.131 16.8288C251.131 16.5176 251.386 16.2654 251.701 16.2654H256.264C256.579 16.2654 256.834 16.5176 256.834 16.8288C256.834 17.1399 256.579 17.3922 256.264 17.3922H255.123L255.526 17.7906C255.633 17.8962 255.778 17.9556 255.93 17.9556H256.264C256.894 17.9556 257.404 17.4511 257.404 16.8288C257.404 16.2065 256.894 15.702 256.264 15.702H251.701C251.071 15.702 250.56 16.2065 250.56 16.8288C250.56 17.4511 251.071 17.9556 251.701 17.9556H253.795C254.022 17.9556 254.24 18.0446 254.4 18.2031L254.872 18.6698C255.14 18.934 255.503 19.0824 255.881 19.0824H256.406V19.0781C257.6 19.0054 258.545 18.0261 258.545 16.8288C258.545 15.5842 257.524 14.5752 256.264 14.5752H251.701C250.441 14.5752 249.419 15.5842 249.419 16.8288C249.419 18.0734 250.441 19.0824 251.701 19.0824H253.082C253.309 19.0824 253.527 19.1714 253.687 19.3299L254.16 19.7966C254.427 20.0608 254.79 20.2092 255.168 20.2092H256.264C258.154 20.2092 259.686 18.6957 259.686 16.8288C259.686 14.9618 258.154 13.4484 256.264 13.4484H251.701C249.811 13.4484 248.279 14.9618 248.279 16.8288C248.279 18.6957 249.811 20.2092 251.701 20.2092H252.471C252.698 20.2092 252.916 20.2982 253.076 20.4567L253.549 20.9234C253.816 21.1876 254.179 21.336 254.557 21.336H256.264C258.784 21.336 260.827 19.3181 260.827 16.8288C260.827 14.3395 258.784 12.3216 256.264 12.3216L251.701 12.3216C249.181 12.3216 247.138 14.3395 247.138 16.8288C247.138 19.3181 249.181 21.336 251.701 21.336Z" fill="#212326"/>
</g>
<g clip-path="url(#clip5_212_1120)">
<path d="M310.687 13.3232C310.009 13.3232 309.359 13.5926 308.88 14.072L307.315 15.6366C306.836 16.116 306.566 16.7662 306.566 17.4442C306.566 18.8561 307.711 20.0006 309.123 20.0006C309.801 20.0006 310.451 19.7312 310.93 19.2518L312.012 18.1696C312.012 18.1696 312.012 18.1696 312.012 18.1696L315.166 15.0163C315.395 14.7873 315.705 14.6587 316.029 14.6587C316.571 14.6587 317.031 15.012 317.19 15.501L318.185 14.5058C317.731 13.7947 316.935 13.3232 316.029 13.3232C315.351 13.3232 314.701 13.5926 314.221 14.072L309.986 18.3075C309.757 18.5365 309.446 18.6651 309.123 18.6651C308.448 18.6651 307.902 18.1185 307.902 17.4442C307.902 17.1204 308.03 16.8099 308.259 16.5809L309.824 15.0163C310.053 14.7873 310.363 14.6587 310.687 14.6587C311.229 14.6587 311.689 15.012 311.848 15.501L312.843 14.5058C312.389 13.7948 311.593 13.3232 310.687 13.3232Z" fill="#394149"/>
<path d="M315.328 18.3075C315.099 18.5365 314.788 18.6651 314.464 18.6651C313.922 18.6651 313.463 18.3119 313.303 17.823L312.308 18.8182C312.762 19.5291 313.558 20.0006 314.464 20.0006C315.142 20.0006 315.793 19.7312 316.272 19.2518L320.508 15.0163C320.737 14.7873 321.047 14.6587 321.371 14.6587C322.045 14.6587 322.592 15.2053 322.592 15.8796C322.592 16.2034 322.463 16.514 322.234 16.7429L320.67 18.3075C320.441 18.5365 320.13 18.6651 319.806 18.6651C319.264 18.6651 318.805 18.3118 318.645 17.8229L317.65 18.8181C318.104 19.5291 318.9 20.0006 319.806 20.0006C320.484 20.0006 321.135 19.7312 321.614 19.2518L323.179 17.6872C323.658 17.2078 323.927 16.5576 323.927 15.8796C323.927 14.4678 322.783 13.3232 321.371 13.3232C320.693 13.3232 320.043 13.5926 319.563 14.072L315.328 18.3075Z" fill="#394149"/>
</g>
<g clip-path="url(#clip6_212_1120)">
<path d="M386.025 15.2161C386.027 15.2022 386.027 15.1881 386.025 15.1742C386.027 15.1628 386.027 15.1513 386.025 15.1399L385.889 14.1608C385.869 14.0437 385.817 13.9342 385.738 13.8446L385.714 13.8179L385.671 13.776L383.316 11.7873L383.383 11.8521C383.328 11.7887 383.261 11.738 383.184 11.7037C383.107 11.6694 383.024 11.6524 382.94 11.654H382.224C382.108 11.6517 381.995 11.688 381.902 11.7568C381.805 11.6884 381.688 11.6523 381.568 11.654H380.853C380.759 11.6525 380.666 11.6753 380.585 11.7201C380.503 11.7649 380.434 11.8302 380.386 11.9092C380.313 12.0221 380.285 12.1581 380.309 12.2902L380.398 12.9074C380.339 12.8745 380.272 12.8574 380.204 12.8579H376.741C376.617 12.8586 376.496 12.8943 376.391 12.9607C376.291 13.0225 376.21 13.111 376.158 13.216L375.89 12.9912C375.785 12.8955 375.645 12.8436 375.502 12.8464H370.069C369.944 12.8487 369.822 12.8828 369.715 12.9455C369.569 13.0295 369.461 13.1662 369.416 13.3265L367.691 18.984C367.658 19.0772 367.655 19.1777 367.681 19.2727C367.708 19.3677 367.762 19.4529 367.838 19.5174C367.858 19.5338 367.879 19.5491 367.9 19.5631C367.9 19.5631 367.865 19.5402 367.846 19.5212L370.201 21.5137C370.301 21.6036 370.431 21.6538 370.566 21.6546H376.042C376.167 21.6514 376.289 21.616 376.395 21.5518C376.456 21.5195 376.51 21.4769 376.555 21.426L376.574 21.3994L376.605 21.3613L376.629 21.3194L376.885 21.5365C376.983 21.6229 377.111 21.6704 377.243 21.6699H382.73C382.855 21.6658 382.976 21.6304 383.083 21.567C383.142 21.5327 383.196 21.4904 383.243 21.4413L383.262 21.4146L383.293 21.3765C383.31 21.3524 383.324 21.3269 383.336 21.3003C383.349 21.2772 383.359 21.253 383.367 21.2279L384.941 16.0619V16.0162C384.943 15.9984 384.943 15.9806 384.941 15.9628V15.9285C384.943 15.9172 384.943 15.9056 384.941 15.8942C384.943 15.8702 384.943 15.846 384.941 15.8219H385.446C385.49 15.8258 385.534 15.8258 385.578 15.8219H385.613C385.642 15.8135 385.669 15.802 385.695 15.7876H385.734L385.804 15.7342L385.835 15.7114L385.889 15.6428V15.62L385.928 15.5552C385.926 15.5426 385.926 15.5297 385.928 15.5171C385.926 15.5109 385.926 15.5042 385.928 15.498C385.936 15.4757 385.943 15.4528 385.947 15.4294C385.946 15.4219 385.946 15.4141 385.947 15.4066C385.945 15.3952 385.945 15.3837 385.947 15.3723C385.947 15.3723 386.025 15.2237 386.025 15.2161Z" fill="black"/>
<path d="M375.661 13.2807C375.682 13.299 375.696 13.3231 375.702 13.3496C375.709 13.3762 375.706 13.404 375.696 13.4293L373.974 19.083C373.953 19.1447 373.908 19.1964 373.85 19.2278C373.803 19.2589 373.748 19.2773 373.691 19.2811H368.219C368.172 19.2789 368.128 19.26 368.095 19.2278C368.075 19.2098 368.061 19.1864 368.055 19.1606C368.049 19.1349 368.05 19.1078 368.06 19.083L369.785 13.4293C369.805 13.3668 369.848 13.3138 369.906 13.2807C369.954 13.2518 370.009 13.2349 370.065 13.2312H375.537C375.583 13.2316 375.627 13.2494 375.661 13.2807ZM372.805 17.9439L373.835 14.5684H370.951L369.925 17.9439H372.805ZM380.884 13.3379C380.903 13.3592 380.926 13.376 380.952 13.3872C380.978 13.3984 381.007 13.4037 381.035 13.4026H381.747C381.774 13.4029 381.8 13.3964 381.824 13.3837C381.848 13.3711 381.868 13.3527 381.883 13.3303C381.895 13.3128 381.904 13.293 381.909 13.272C381.913 13.2511 381.914 13.2294 381.91 13.2084L381.77 12.2026C381.757 12.156 381.733 12.113 381.7 12.0768C381.681 12.0556 381.658 12.0387 381.632 12.0275C381.605 12.0163 381.577 12.011 381.548 12.0121H380.837C380.81 12.0118 380.783 12.0183 380.76 12.031C380.736 12.0437 380.716 12.0621 380.701 12.0845C380.674 12.1378 380.662 12.1721 380.674 12.2026L380.818 13.2084C380.825 13.2573 380.848 13.3027 380.884 13.3379ZM383.142 12.195C383.128 12.1484 383.104 12.1054 383.072 12.0692C383.054 12.048 383.031 12.0312 383.006 12.0199C382.98 12.0087 382.952 12.0034 382.924 12.0045H382.209C382.182 12.0037 382.156 12.0101 382.133 12.0228C382.109 12.0355 382.09 12.0542 382.077 12.0768C382.051 12.1106 382.04 12.1531 382.046 12.195L382.19 13.2007C382.199 13.2492 382.221 13.2941 382.256 13.3303C382.275 13.3511 382.298 13.3677 382.324 13.3789C382.35 13.3901 382.379 13.3956 382.407 13.395H383.122C383.149 13.3954 383.175 13.3889 383.198 13.3762C383.221 13.3635 383.241 13.345 383.254 13.3226C383.268 13.3056 383.277 13.2858 383.282 13.2647C383.287 13.2436 383.287 13.2218 383.282 13.2007L383.142 12.195ZM380.258 13.7189L380.188 13.2236H376.741C376.687 13.2265 376.635 13.2436 376.59 13.2731C376.561 13.2884 376.536 13.3096 376.517 13.3353C376.497 13.3609 376.484 13.3904 376.477 13.4217L376.189 14.3665C376.178 14.3901 376.174 14.4166 376.178 14.4425C376.182 14.4683 376.194 14.4923 376.213 14.5113C376.246 14.5415 376.288 14.5591 376.333 14.5608H380.522L379.493 17.9363H375.315C375.261 17.9375 375.209 17.9533 375.164 17.982C375.109 18.0162 375.068 18.0691 375.051 18.1306L374.759 19.0754C374.75 19.0997 374.747 19.126 374.752 19.1515C374.757 19.1771 374.769 19.2008 374.787 19.2202C374.818 19.2524 374.861 19.2715 374.907 19.2735H380.394C380.451 19.2687 380.506 19.2504 380.554 19.2202C380.611 19.1886 380.654 19.1369 380.674 19.0754L382.252 13.9094H380.476C380.448 13.9099 380.42 13.9048 380.394 13.8943C380.368 13.8838 380.344 13.8682 380.324 13.8484C380.292 13.8138 380.269 13.7719 380.258 13.7265V13.7189Z" fill="white"/>
</g>
<defs>
<clipPath id="clip0_212_1120">
<rect width="13.3547" height="13.3547" fill="white" transform="translate(1.41229 10.0357)"/>
</clipPath>
<clipPath id="clip1_212_1120">
<rect width="13.3547" height="9.34826" fill="white" transform="translate(62.8437 11.9878)"/>
</clipPath>
<clipPath id="clip2_212_1120">
<rect width="18.3627" height="10.016" fill="white" transform="translate(121.938 11.6539)"/>
</clipPath>
<clipPath id="clip3_212_1120">
<rect width="15.6917" height="9.68213" fill="white" transform="translate(184.705 11.9878)"/>
</clipPath>
<clipPath id="clip4_212_1120">
<rect width="13.6885" height="9.0144" fill="white" transform="translate(247.138 12.3216)"/>
</clipPath>
<clipPath id="clip5_212_1120">
<rect width="17.3611" height="6.67733" fill="white" transform="translate(306.566 13.3232)"/>
</clipPath>
<clipPath id="clip6_212_1120">
<rect width="18.3627" height="10.016" fill="white" transform="translate(367.664 11.6539)"/>
</clipPath>
</defs>
</svg>
