<svg width="148" height="145" viewBox="0 0 148 145" fill="none" xmlns="http://www.w3.org/2000/svg">
<path d="M74.117 127.287C105.688 127.287 131.281 125.793 131.281 123.95C131.281 122.106 105.688 120.612 74.117 120.612C42.5463 120.612 16.9532 122.106 16.9532 123.95C16.9532 125.793 42.5463 127.287 74.117 127.287Z" fill="#F5F5F5"/>
<path d="M103.379 49.4147L100.454 48.2354C100.454 48.2354 96.5946 55.2729 95.489 55.6296C93.9854 56.1131 90.872 57.4575 89.0264 57.6934C88.7758 57.9882 88.366 58.9051 88.4043 59.2383C90.8838 60.0667 96.3322 58.967 97.4997 58.1002C100.156 56.1337 103.379 49.4147 103.379 49.4147Z" fill="#E58A7B"/>
<path d="M104.278 47.8137C104.823 49.8274 101.869 53.8783 101.869 53.8783L97.998 51.7084C97.998 51.7084 98.7232 50.0426 99.6077 48.3474C101.026 45.6084 103.656 45.517 104.278 47.8137Z" fill="#4CAF4F"/>
<path opacity="0.2" d="M104.278 47.8137C104.823 49.8274 101.869 53.8783 101.869 53.8783L97.998 51.7084C97.998 51.7084 98.7232 50.0426 99.6077 48.3474C101.026 45.6084 103.656 45.517 104.278 47.8137Z" fill="black"/>
<path opacity="0.2" d="M99.534 52.5752L101.058 53.4302L101.327 48.7513C100.439 49.4324 99.8141 51.4844 99.534 52.5752Z" fill="black"/>
<path d="M101.73 46.2983C101.73 46.2983 98.7174 53.0027 100.475 65.4856H112.347C112.536 63.6636 111.911 54.7716 114.172 46.1863C112.87 45.9318 111.552 45.7634 110.227 45.6821C108.547 45.5848 106.863 45.5848 105.183 45.6821C104.018 45.8004 102.864 46.0064 101.73 46.2983Z" fill="#4CAF4F"/>
<path opacity="0.2" d="M101.73 46.2983C101.73 46.2983 98.7174 53.0027 100.475 65.4856H112.347C112.536 63.6636 111.911 54.7716 114.172 46.1863C112.87 45.9318 111.552 45.7634 110.227 45.6821C108.547 45.5848 106.863 45.5848 105.183 45.6821C104.018 45.8004 102.864 46.0064 101.73 46.2983Z" fill="black"/>
<g style="mix-blend-mode:multiply">
<path d="M98.9768 124.215C98.9591 124.533 103.461 124.79 109.03 124.79C114.6 124.79 119.134 124.533 119.152 124.215C119.169 123.897 114.67 123.643 109.098 123.643C103.526 123.643 98.9974 123.9 98.9768 124.215Z" fill="#E8ECF1"/>
</g>
<path d="M106.902 115.849L104.796 116.664L106.61 121.35L108.716 120.535L106.902 115.849Z" fill="#E58A7B"/>
<path d="M116.292 121.948H114.072L113.258 116.809H115.478L116.292 121.948Z" fill="#E58A7B"/>
<path d="M113.919 121.691H116.413C116.456 121.691 116.498 121.707 116.531 121.735C116.564 121.763 116.586 121.802 116.593 121.845L116.914 123.817C116.921 123.866 116.917 123.917 116.902 123.965C116.888 124.012 116.863 124.057 116.83 124.094C116.797 124.132 116.757 124.162 116.711 124.182C116.666 124.202 116.616 124.213 116.566 124.212C115.696 124.197 115.278 124.144 114.181 124.144C113.506 124.144 112.117 124.215 111.18 124.215C110.242 124.215 110.18 123.295 110.566 123.21C112.3 122.835 112.972 122.325 113.55 121.83C113.652 121.74 113.783 121.691 113.919 121.691Z" fill="#263238"/>
<path d="M106.548 120.931L108.907 120.241C108.949 120.229 108.993 120.232 109.034 120.249C109.074 120.266 109.107 120.296 109.128 120.335L110.012 122.104C110.033 122.149 110.043 122.198 110.043 122.247C110.043 122.296 110.032 122.345 110.01 122.39C109.989 122.434 109.959 122.474 109.921 122.506C109.883 122.537 109.839 122.56 109.791 122.573C108.933 122.809 108.358 122.953 107.285 123.266C106.545 123.481 105.79 123.832 105.059 124.065C104.552 124.227 103.361 124.233 102.745 124.233C101.834 124.233 101.63 123.272 102.022 123.227C103.01 123.118 103.143 123.168 103.688 122.894C104.581 122.504 105.389 121.945 106.07 121.249C106.199 121.103 106.363 120.993 106.548 120.931Z" fill="#263238"/>
<path d="M89.3979 57.6816L86.9567 56.6585L85.9514 59.365C86.952 59.5175 87.9698 59.5175 88.9704 59.365L89.3979 57.6816Z" fill="#E58A7B"/>
<path d="M85.1406 56.5878L85.0757 58.3862L85.9514 59.3591L86.9567 56.6526L85.1406 56.5878Z" fill="#E58A7B"/>
<path d="M107.191 116.247L105.078 117.062L106.014 119.485L108.126 118.67L107.191 116.247Z" fill="#CF6F64"/>
<path d="M115.478 116.809H113.258L113.68 119.459H115.9L115.478 116.809Z" fill="#CF6F64"/>
<path opacity="0.2" d="M100.097 62.1099C100.141 62.6435 100.191 63.1889 100.256 63.7491L109.083 60.8834C110.462 60.4749 111.66 59.6086 112.48 58.4275C112.515 57.6403 112.559 56.8119 112.627 55.948C112.657 55.5294 112.692 55.0989 112.73 54.6626C112.769 54.2262 112.822 53.7427 112.878 53.2769L100.097 62.1099Z" fill="black"/>
<path d="M102.981 52.4396L102.686 52.4042C102.86 50.9301 103.959 49.7685 105.118 49.7979V50.0928C104.104 50.0721 103.137 51.1188 102.981 52.4396Z" fill="white"/>
<path d="M104.552 55.1608H104.502V54.866C105.516 54.9043 106.468 53.8459 106.625 52.528L106.919 52.5634C106.763 54.0051 105.699 55.1608 104.552 55.1608Z" fill="white"/>
<path d="M110.062 40.0009C109.647 41.6253 109.157 44.6001 110.227 45.6822C110.227 45.6822 109.479 47.3302 106.462 47.3302C103.706 47.3302 105.183 45.6822 105.183 45.6822C107.017 45.2517 107.049 43.9132 106.807 42.6454L110.062 40.0009Z" fill="#E58A7B"/>
<path d="M108.736 41.0799L106.81 42.6455C106.87 42.9368 106.905 43.2327 106.914 43.5299C107.477 44.0901 108.606 42.672 108.721 41.9467C108.779 41.6612 108.784 41.3673 108.736 41.0799Z" fill="#CF6F64"/>
<path d="M103.499 39.9802C103.633 40.2124 103.814 40.4145 104.029 40.5738C104.245 40.733 104.491 40.8461 104.752 40.906C105.46 41.0622 105.814 40.4107 105.619 39.7562C105.445 39.1665 104.864 38.3734 104.145 38.509C103.991 38.5408 103.847 38.609 103.724 38.7079C103.602 38.8069 103.505 38.9337 103.442 39.0778C103.379 39.2218 103.351 39.379 103.361 39.536C103.371 39.693 103.418 39.8453 103.499 39.9802Z" fill="#CF6F64"/>
<path d="M104.67 34.7825C103.567 35.2866 103.178 39.6677 104.564 40.3163C105.949 40.965 106.757 33.8243 104.67 34.7825Z" fill="#263238"/>
<path d="M110.398 37.5568C110.133 39.7562 110.104 41.0504 108.924 42.1767C108.559 42.5504 108.097 42.8159 107.59 42.9438C107.084 43.0717 106.551 43.0571 106.052 42.9015C105.553 42.746 105.107 42.4555 104.763 42.0623C104.418 41.669 104.189 41.1883 104.101 40.6731C103.744 38.6977 104.236 35.434 106.442 34.5584C106.905 34.354 107.415 34.2773 107.918 34.3362C108.421 34.395 108.899 34.5874 109.302 34.8933C109.706 35.1991 110.02 35.6074 110.213 36.0757C110.406 36.544 110.47 37.0554 110.398 37.5568Z" fill="#E58A7B"/>
<path d="M106.775 35.9205C108.408 35.5047 109.608 35.2217 109.178 36.5809C108.609 38.397 107.925 40.1542 108.842 40.2338C109.402 40.2839 111.878 39.2343 111.563 38.17C111.289 37.2442 112.447 36.9907 112.654 36.5219C113.417 34.8237 111.233 35.0478 111.622 34.0159C112.011 32.984 109.853 31.3212 108.674 32.1496C106.754 33.4881 103.461 33.4675 105.192 31.2651C106.433 29.6937 104.219 30.0151 104.219 30.0151C104.219 30.0151 105.557 30.8082 103.305 32.0346C100.923 33.3437 103.107 36.8609 106.775 35.9205Z" fill="#263238"/>
<path d="M111.265 39.9802C110.943 40.4468 110.458 40.7768 109.906 40.906C109.178 41.0622 108.898 40.4107 109.172 39.7562C109.417 39.1665 110.089 38.3734 110.785 38.509C111.48 38.6447 111.64 39.4024 111.265 39.9802Z" fill="#E58A7B"/>
<path d="M100.475 65.4856C100.475 65.4856 98.4815 83.3226 98.3252 90.0918C98.166 97.1323 105.08 119.1 105.08 119.1L108.618 117.626C108.618 117.626 104.49 97.5539 105.08 90.6402C105.705 83.1015 108.287 65.4974 108.287 65.4974L100.475 65.4856Z" fill="#4CAF4F"/>
<path opacity="0.2" d="M105.428 70.3827C103.838 73.6788 104.909 80.1974 105.77 84.0597C106.097 81.3325 106.486 78.3725 106.855 75.6335C106.819 71.4234 106.492 68.1715 105.428 70.3827Z" fill="black"/>
<path d="M108.461 116.458C108.479 116.458 108.88 117.584 108.88 117.584L104.8 119.3L104.157 118.103L108.461 116.458Z" fill="#4CAF4F"/>
<path d="M104.688 65.4856C104.688 65.4856 106.212 82.4499 107.22 88.8034C108.329 95.7643 112.674 118.946 112.674 118.946H116.74C116.74 118.946 114.305 96.3274 113.845 89.4344C113.344 81.9576 112.347 65.4856 112.347 65.4856H104.688Z" fill="#4CAF4F"/>
<path d="M116.802 117.888C116.82 117.888 116.938 119.023 116.938 119.023H112.468L112.15 117.72L116.802 117.888Z" fill="#4CAF4F"/>
<path opacity="0.2" d="M115.245 116.544C115.236 116.544 115.227 116.541 115.22 116.535C115.213 116.529 115.208 116.52 115.207 116.511C115.183 116.305 112.987 95.8734 112.574 89.682C112.126 82.9659 111.224 68.0683 111.215 67.918C111.215 67.9131 111.215 67.9082 111.217 67.9035C111.218 67.8989 111.221 67.8946 111.224 67.891C111.228 67.8874 111.232 67.8845 111.236 67.8826C111.241 67.8806 111.246 67.8796 111.25 67.8796C111.26 67.8796 111.269 67.8832 111.277 67.8898C111.284 67.8964 111.288 67.9054 111.289 67.915C111.289 68.0654 112.2 82.9512 112.648 89.6791C113.061 95.8704 115.257 116.287 115.278 116.508C115.279 116.513 115.278 116.518 115.277 116.523C115.276 116.528 115.274 116.532 115.271 116.536C115.268 116.54 115.264 116.543 115.259 116.546C115.255 116.548 115.25 116.549 115.245 116.55V116.544Z" fill="black"/>
<path d="M107.026 38.17C107.026 38.3499 106.913 38.4943 106.796 38.4943C106.678 38.4943 106.592 38.3499 106.604 38.17C106.616 37.9902 106.716 37.8457 106.834 37.8457C106.952 37.8457 107.037 37.9931 107.026 38.17Z" fill="#263238"/>
<path d="M105.003 38.17C105.003 38.3499 104.888 38.4943 104.773 38.4943C104.658 38.4943 104.57 38.3499 104.578 38.17C104.587 37.9902 104.693 37.8457 104.811 37.8457C104.929 37.8457 105.015 37.9931 105.003 38.17Z" fill="#263238"/>
<path d="M105.64 38.2614C105.394 38.8106 105.077 39.325 104.696 39.7915C104.991 40.0864 105.543 39.9507 105.543 39.9507L105.64 38.2614Z" fill="#DF5753"/>
<path d="M105.693 40.7026C105.686 40.7026 105.679 40.7012 105.673 40.6985C105.667 40.6958 105.661 40.6918 105.656 40.6869C105.652 40.6819 105.648 40.676 105.646 40.6696C105.643 40.6632 105.642 40.6563 105.643 40.6495C105.644 40.6352 105.65 40.6216 105.66 40.6118C105.671 40.6019 105.684 40.5964 105.699 40.5964C105.924 40.598 106.147 40.549 106.351 40.4531C106.555 40.3572 106.735 40.2168 106.878 40.0421C106.888 40.0332 106.901 40.0283 106.915 40.0283C106.929 40.0283 106.942 40.0332 106.952 40.0421C106.961 40.052 106.967 40.0653 106.967 40.079C106.967 40.0928 106.961 40.106 106.952 40.1159C106.799 40.3014 106.607 40.4504 106.389 40.552C106.171 40.6535 105.933 40.7049 105.693 40.7026Z" fill="#263238"/>
<path d="M107.385 37.6275C107.371 37.6348 107.355 37.6385 107.34 37.6385C107.324 37.6385 107.308 37.6348 107.294 37.6275C107.184 37.5562 107.058 37.5119 106.927 37.498C106.797 37.4842 106.665 37.5013 106.542 37.5479C106.53 37.5539 106.517 37.5574 106.504 37.5583C106.49 37.5592 106.477 37.5573 106.464 37.5529C106.452 37.5485 106.44 37.5417 106.43 37.5327C106.42 37.5237 106.412 37.5129 106.406 37.5007C106.395 37.4745 106.395 37.445 106.406 37.4186C106.416 37.3922 106.436 37.3709 106.462 37.3592C106.617 37.2963 106.784 37.2714 106.949 37.2868C107.115 37.3022 107.275 37.3574 107.415 37.4477C107.426 37.4554 107.436 37.4652 107.443 37.4767C107.451 37.4881 107.456 37.5009 107.458 37.5144C107.461 37.5278 107.46 37.5416 107.458 37.555C107.455 37.5683 107.449 37.5809 107.441 37.5921C107.426 37.609 107.407 37.6213 107.385 37.6275Z" fill="#263238"/>
<path d="M104.222 37.0379C104.206 37.034 104.192 37.0259 104.18 37.0143C104.171 37.0047 104.163 36.9932 104.158 36.9805C104.152 36.9679 104.15 36.9543 104.15 36.9406C104.15 36.9268 104.152 36.9132 104.158 36.9006C104.163 36.8879 104.171 36.8765 104.18 36.8669C104.293 36.7401 104.434 36.6412 104.592 36.5778C104.749 36.5144 104.919 36.4882 105.089 36.5013C105.102 36.5034 105.115 36.5082 105.127 36.5155C105.138 36.5229 105.148 36.5325 105.156 36.5438C105.164 36.5551 105.169 36.5679 105.172 36.5814C105.174 36.5949 105.174 36.6088 105.171 36.6221C105.165 36.6494 105.149 36.6735 105.126 36.6898C105.103 36.7061 105.075 36.7135 105.047 36.7106C104.913 36.7022 104.779 36.7243 104.655 36.7754C104.531 36.8265 104.42 36.9051 104.331 37.0054C104.317 37.0203 104.3 37.0313 104.281 37.037C104.262 37.0427 104.241 37.043 104.222 37.0379Z" fill="#263238"/>
<path d="M115.313 49.0874L112.247 48.2707C112.247 48.2707 109.24 55.6738 108.175 56.1544C106.731 56.8148 103.072 59.1026 101.515 60.1846C101.43 60.5532 101.498 61.529 101.692 61.7973C104.346 61.3138 109.425 59.3591 110.487 58.3656C112.907 56.0984 115.313 49.0874 115.313 49.0874Z" fill="#E58A7B"/>
<path d="M113.173 122.08C113.023 122.092 112.874 122.052 112.751 121.965C112.713 121.931 112.685 121.888 112.669 121.839C112.653 121.79 112.65 121.738 112.66 121.688C112.662 121.657 112.672 121.627 112.689 121.601C112.707 121.575 112.731 121.554 112.76 121.541C113.008 121.414 113.7 121.853 113.78 121.904C113.789 121.909 113.796 121.917 113.799 121.927C113.803 121.936 113.803 121.947 113.801 121.957C113.798 121.967 113.793 121.976 113.786 121.984C113.779 121.992 113.769 121.998 113.759 122.001C113.567 122.048 113.37 122.075 113.173 122.08ZM112.878 121.621C112.856 121.616 112.832 121.616 112.81 121.621C112.799 121.626 112.789 121.635 112.783 121.646C112.777 121.657 112.774 121.67 112.775 121.682C112.767 121.717 112.768 121.753 112.778 121.786C112.789 121.82 112.808 121.85 112.834 121.874C112.949 121.977 113.238 121.989 113.618 121.915C113.391 121.766 113.136 121.666 112.869 121.621H112.878Z" fill="#4CAF4F"/>
<path d="M113.745 122.001C113.737 122.003 113.729 122.003 113.721 122.001C113.5 121.877 113.084 121.391 113.146 121.143C113.155 121.104 113.178 121.069 113.209 121.044C113.241 121.018 113.28 121.005 113.32 121.004C113.36 120.999 113.4 121.002 113.438 121.014C113.476 121.026 113.511 121.046 113.541 121.072C113.786 121.281 113.801 121.924 113.801 121.957C113.802 121.966 113.8 121.976 113.795 121.985C113.791 121.993 113.783 122 113.774 122.004C113.764 122.006 113.754 122.005 113.745 122.001ZM113.35 121.102H113.329C113.261 121.102 113.252 121.14 113.249 121.155C113.214 121.299 113.476 121.668 113.694 121.842C113.693 121.593 113.616 121.35 113.473 121.146C113.439 121.116 113.395 121.1 113.35 121.102Z" fill="#4CAF4F"/>
<path d="M105.345 121.712C105.165 121.775 104.968 121.775 104.788 121.712C104.747 121.69 104.712 121.658 104.687 121.618C104.662 121.579 104.647 121.534 104.643 121.488C104.64 121.459 104.643 121.429 104.654 121.402C104.665 121.374 104.683 121.35 104.705 121.332C104.941 121.119 105.905 121.332 106.014 121.373C106.025 121.376 106.034 121.382 106.04 121.39C106.047 121.399 106.05 121.409 106.05 121.42C106.05 121.431 106.047 121.442 106.041 121.451C106.036 121.461 106.027 121.468 106.017 121.473C105.8 121.571 105.575 121.651 105.345 121.712ZM104.864 121.361C104.831 121.368 104.799 121.383 104.773 121.405C104.764 121.412 104.756 121.422 104.752 121.433C104.748 121.444 104.747 121.456 104.749 121.467C104.751 121.498 104.761 121.528 104.778 121.554C104.794 121.581 104.817 121.602 104.844 121.618C105 121.7 105.363 121.635 105.831 121.438C105.516 121.358 105.189 121.332 104.864 121.361Z" fill="#4CAF4F"/>
<path d="M106.008 121.473H105.985C105.69 121.42 105.1 121.081 105.083 120.827C105.083 120.768 105.109 120.686 105.251 120.639C105.299 120.622 105.349 120.615 105.4 120.618C105.451 120.621 105.5 120.634 105.546 120.656C105.864 120.813 106.032 121.379 106.041 121.405C106.043 121.414 106.043 121.424 106.04 121.432C106.037 121.441 106.033 121.449 106.026 121.455C106.022 121.463 106.016 121.469 106.008 121.473ZM105.31 120.727H105.28C105.189 120.76 105.189 120.798 105.189 120.81C105.189 120.963 105.616 121.243 105.914 121.337C105.845 121.101 105.7 120.893 105.501 120.748C105.442 120.718 105.374 120.71 105.31 120.727Z" fill="#4CAF4F"/>
<path d="M101.766 60.0107L98.6908 61.4259L98.3341 62.3104L99.4691 63.074C99.4691 63.074 101.592 62.844 102.196 61.4789L101.766 60.0107Z" fill="#E58A7B"/>
<path d="M101.896 61.8475C101.827 61.2566 101.632 60.6875 101.324 60.1788L101.81 59.8132C102.176 60.3994 102.409 61.0584 102.494 61.7443L101.896 61.8475Z" fill="#263238"/>
<path d="M102.42 60.4294C102.485 60.5316 102.517 60.6514 102.512 60.7724C102.506 60.8935 102.464 61.0099 102.39 61.1058C102.316 61.2018 102.214 61.2726 102.098 61.3087C101.983 61.3447 101.859 61.3443 101.743 61.3074C101.628 61.2705 101.527 61.1989 101.453 61.1025C101.38 61.006 101.338 60.8893 101.334 60.7682C101.329 60.6471 101.362 60.5276 101.427 60.4258C101.493 60.324 101.589 60.245 101.701 60.1994C101.827 60.1352 101.973 60.1233 102.108 60.1664C102.243 60.2094 102.355 60.304 102.42 60.4294Z" fill="#263238"/>
<path d="M96.6123 62.5698L97.0221 62.9826L99.7817 61.8032L98.6908 61.4259L96.6123 62.5698Z" fill="#E58A7B"/>
<path opacity="0.2" d="M108.461 116.458C108.479 116.458 108.88 117.584 108.88 117.584L104.8 119.3L104.157 118.103L108.461 116.458Z" fill="black"/>
<path opacity="0.2" d="M116.802 117.888C116.82 117.888 116.938 119.023 116.938 119.023H112.468L112.15 117.72L116.802 117.888Z" fill="black"/>
<path d="M116.112 48.2383C116.923 50.8534 113.753 54.4297 113.753 54.4297L109.375 52.643C109.894 51.1315 110.493 49.6484 111.168 48.2C112.512 45.3018 115.292 45.5996 116.112 48.2383Z" fill="#4CAF4F"/>
<path opacity="0.2" d="M116.112 48.2383C116.923 50.8534 113.753 54.4297 113.753 54.4297L109.375 52.643C109.894 51.1315 110.493 49.6484 111.168 48.2C112.512 45.3018 115.292 45.5996 116.112 48.2383Z" fill="black"/>
<path d="M72.6076 22.0371H70.7237V22.3408H72.6076V22.0371Z" fill="#4CAF4F"/>
<path d="M96.9951 34.0561L96.7671 39.1161L97.0704 39.1298L97.2984 34.0698L96.9951 34.0561Z" fill="#4CAF4F"/>
<path d="M96.4089 23.3992H61.6194L58.3822 95.8439H93.1717L96.4089 23.3992Z" fill="#4CAF4F"/>
<path opacity="0.56" d="M95.3712 24.3957H60.5817L57.3445 96.8404H92.134L95.3712 24.3957Z" fill="#FAFAFA"/>
<path opacity="0.07" d="M94.3333 25.3893H59.5439L56.3037 97.834H91.0932L94.3333 25.3893Z" fill="#4CAF4F"/>
<path d="M90.3738 56.9858H60.6789L60.4313 62.5285H90.1262L90.3738 56.9858Z" fill="white"/>
<path d="M77.0094 52.9408H60.8588L60.7497 55.4203H76.9003L77.0094 52.9408Z" fill="#4CAF4F"/>
<path d="M89.7046 71.9453H60.0097L59.762 77.488H89.4569L89.7046 71.9453Z" fill="white"/>
<path opacity="0.47" d="M84.2591 84.9736H64.2905L63.9928 91.6161H83.9613L84.2591 84.9736Z" fill="#4CAF4F"/>
<path d="M82.9236 92.648H62.955C62.9463 92.6502 62.9372 92.6502 62.9285 92.648C62.9255 92.6394 62.9255 92.63 62.9285 92.6214L63.2233 85.9761C63.2233 85.9715 63.2242 85.9671 63.226 85.9629C63.2278 85.9588 63.2305 85.9551 63.2338 85.952C63.2371 85.949 63.2411 85.9466 63.2453 85.9452C63.2496 85.9437 63.2542 85.9432 63.2587 85.9436H83.2272C83.2309 85.9418 83.2349 85.9409 83.239 85.9409C83.2431 85.9409 83.2472 85.9418 83.2508 85.9436C83.2529 85.9472 83.254 85.9513 83.254 85.9554C83.254 85.9596 83.2529 85.9636 83.2508 85.9672L82.9619 92.6273C82.9584 92.6343 82.9528 92.6399 82.9459 92.6436C82.9391 92.6473 82.9313 92.6488 82.9236 92.648ZM62.9904 92.5772H82.8882L83.183 86.0026H63.2852L62.9904 92.5772Z" fill="white"/>
<path d="M73.5216 67.9003H60.1895L60.0804 70.3827H73.4095L73.5216 67.9003Z" fill="#4CAF4F"/>
<path d="M83.8788 39.081C83.8026 40.6941 83.2289 42.2441 82.2366 43.5181C81.502 44.4805 80.5567 45.2618 79.4732 45.802C78.3898 46.3422 77.1969 46.6269 75.9863 46.6345C75.0079 46.6419 74.0384 46.449 73.1375 46.0676C72.2366 45.6862 71.4232 45.1243 70.7476 44.4167C70.072 43.7091 69.5485 42.8706 69.2092 41.953C68.8699 41.0353 68.7221 40.0579 68.7748 39.081C68.8785 37.0538 69.7527 35.1428 71.2187 33.7387C72.6847 32.3347 74.6316 31.5437 76.6614 31.5276C77.6405 31.5184 78.611 31.7102 79.5131 32.0909C80.4151 32.4717 81.2295 33.0334 81.9059 33.7413C82.5823 34.4492 83.1064 35.2883 83.4457 36.2067C83.785 37.1251 83.9324 38.1034 83.8788 39.081Z" fill="white"/>
<path d="M84.5893 33.1078C84.5701 33.5368 84.4176 33.949 84.153 34.2871C83.9572 34.5427 83.7056 34.7502 83.4175 34.8938C83.1293 35.0374 82.8121 35.1133 82.4902 35.1156C82.1782 35.1175 81.8706 35.043 81.5941 34.8986C81.3176 34.7541 81.0807 34.5442 80.904 34.2871C80.6701 33.9397 80.5543 33.5262 80.5738 33.1078C80.6023 32.5696 80.8351 32.0625 81.2246 31.69C81.6141 31.3174 82.1311 31.1075 82.67 31.103C82.93 31.1006 83.1878 31.1515 83.4274 31.2526C83.667 31.3536 83.8833 31.5026 84.0632 31.6904C84.243 31.8783 84.3824 32.1009 84.4729 32.3447C84.5634 32.5885 84.603 32.8482 84.5893 33.1078Z" fill="#4CAF4F"/>
<path d="M63.8778 59.7572C63.8636 59.9947 63.7599 60.2181 63.5876 60.3822C63.4152 60.5464 63.1871 60.6391 62.9491 60.6416C62.8342 60.643 62.7202 60.6208 62.6142 60.5764C62.5082 60.5319 62.4125 60.4662 62.3329 60.3833C62.2533 60.3004 62.1916 60.2021 62.1515 60.0944C62.1115 59.9867 62.0939 59.8719 62.1 59.7572C62.1128 59.5191 62.216 59.2949 62.3887 59.1305C62.5613 58.9661 62.7903 58.8738 63.0287 58.8727C63.1435 58.8717 63.2572 58.8942 63.363 58.9388C63.4688 58.9834 63.5644 59.0491 63.6439 59.1319C63.7234 59.2147 63.7851 59.3129 63.8253 59.4204C63.8656 59.5279 63.8834 59.6425 63.8778 59.7572Z" fill="#263238"/>
<path d="M67.8521 59.7572C67.8386 59.995 67.7351 60.2188 67.5626 60.383C67.3901 60.5473 67.1616 60.6398 66.9234 60.6416C66.8087 60.6426 66.6951 60.6201 66.5894 60.5755C66.4838 60.5309 66.3884 60.4651 66.3091 60.3823C66.2299 60.2994 66.1684 60.2012 66.1285 60.0937C66.0886 59.9862 66.0712 59.8717 66.0772 59.7572C66.09 59.5196 66.1928 59.2958 66.3648 59.1315C66.5369 58.9671 66.7651 58.8746 67.003 58.8727C67.1179 58.8713 67.2318 58.8935 67.3378 58.938C67.4438 58.9824 67.5395 59.0481 67.6191 59.131C67.6987 59.2139 67.7604 59.3122 67.8005 59.4199C67.8406 59.5276 67.8581 59.6424 67.8521 59.7572Z" fill="#263238"/>
<path d="M71.8293 59.7572C71.8158 59.995 71.7123 60.2188 71.5398 60.383C71.3673 60.5473 71.1387 60.6398 70.9006 60.6416C70.7858 60.6426 70.672 60.6201 70.5662 60.5755C70.4604 60.5309 70.3649 60.4652 70.2854 60.3824C70.2059 60.2996 70.1441 60.2014 70.1039 60.0939C70.0637 59.9864 70.0458 59.8718 70.0515 59.7572C70.0649 59.5193 70.1684 59.2956 70.3409 59.1313C70.5134 58.967 70.742 58.8745 70.9802 58.8727C71.0951 58.8713 71.209 58.8935 71.315 58.938C71.421 58.9824 71.5167 59.0481 71.5963 59.131C71.6759 59.2139 71.7376 59.3122 71.7777 59.4199C71.8178 59.5276 71.8353 59.6424 71.8293 59.7572Z" fill="#263238"/>
<path d="M63.2085 74.7167C63.1944 74.9542 63.0907 75.1776 62.9183 75.3417C62.746 75.5059 62.5178 75.5986 62.2798 75.6011C62.165 75.6021 62.0513 75.5796 61.9455 75.535C61.8397 75.4904 61.7441 75.4247 61.6646 75.3419C61.5851 75.2591 61.5234 75.1609 61.4832 75.0534C61.443 74.9459 61.4251 74.8313 61.4307 74.7167C61.4442 74.4788 61.5477 74.2551 61.7202 74.0908C61.8927 73.9265 62.1212 73.834 62.3594 73.8322C62.4742 73.8312 62.588 73.8537 62.6938 73.8983C62.7996 73.9429 62.8951 74.0086 62.9746 74.0914C63.0541 74.1742 63.1159 74.2724 63.1561 74.3799C63.1963 74.4874 63.2142 74.602 63.2085 74.7167Z" fill="#263238"/>
<path d="M67.1828 74.7167C67.1693 74.954 67.0663 75.1773 66.8944 75.3415C66.7225 75.5057 66.4947 75.5985 66.257 75.6011C66.1421 75.6025 66.0282 75.5803 65.9222 75.5359C65.8162 75.4914 65.7205 75.4257 65.6409 75.3428C65.5613 75.2599 65.4996 75.1616 65.4595 75.0539C65.4194 74.9462 65.4019 74.8314 65.4079 74.7167C65.4214 74.4788 65.5249 74.2551 65.6974 74.0908C65.8699 73.9265 66.0984 73.834 66.3366 73.8322C66.4513 73.8312 66.5649 73.8537 66.6706 73.8983C66.7762 73.9429 66.8716 74.0087 66.9509 74.0916C67.0301 74.1744 67.0916 74.2726 67.1315 74.3801C67.1714 74.4876 67.1888 74.6022 67.1828 74.7167Z" fill="#263238"/>
<path d="M71.1688 74.7167C71.1554 74.9545 71.0519 75.1783 70.8794 75.3425C70.7069 75.5068 70.4783 75.5993 70.2401 75.6011C70.1255 75.6017 70.0119 75.5789 69.9063 75.5341C69.8007 75.4894 69.7053 75.4237 69.6259 75.341C69.5465 75.2583 69.4847 75.1603 69.4444 75.0529C69.404 74.9456 69.3858 74.8312 69.391 74.7167C69.4052 74.4791 69.5089 74.2557 69.6812 74.0916C69.8536 73.9274 70.0818 73.8347 70.3197 73.8322C70.4346 73.8308 70.5486 73.853 70.6546 73.8975C70.7606 73.9419 70.8563 74.0076 70.9359 74.0905C71.0155 74.1734 71.0772 74.2717 71.1173 74.3794C71.1573 74.4871 71.1749 74.6019 71.1688 74.7167Z" fill="#263238"/>
<path d="M75.1372 74.7167C75.1231 74.9542 75.0194 75.1776 74.847 75.3417C74.6747 75.5059 74.4465 75.5986 74.2085 75.6011C74.0939 75.6017 73.9803 75.5789 73.8747 75.5341C73.7691 75.4894 73.6737 75.4237 73.5943 75.341C73.5149 75.2583 73.4531 75.1603 73.4127 75.0529C73.3724 74.9456 73.3542 74.8312 73.3594 74.7167C73.3736 74.4791 73.4773 74.2557 73.6496 74.0916C73.822 73.9274 74.0501 73.8347 74.2881 73.8322C74.4029 73.8312 74.5167 73.8537 74.6225 73.8983C74.7282 73.9429 74.8238 74.0086 74.9033 74.0914C74.9828 74.1742 75.0446 74.2724 75.0848 74.3799C75.125 74.4874 75.1428 74.602 75.1372 74.7167Z" fill="#263238"/>
<path d="M79.1291 74.7167C79.115 74.9542 79.0113 75.1776 78.8389 75.3417C78.6666 75.5059 78.4384 75.5986 78.2004 75.6011C78.0855 75.6025 77.9716 75.5803 77.8656 75.5359C77.7596 75.4914 77.6638 75.4257 77.5843 75.3428C77.5047 75.2599 77.4429 75.1616 77.4029 75.0539C77.3628 74.9462 77.3453 74.8314 77.3513 74.7167C77.3648 74.4788 77.4683 74.2551 77.6408 74.0908C77.8133 73.9265 78.0418 73.834 78.28 73.8322C78.3948 73.8312 78.5086 73.8537 78.6144 73.8983C78.7202 73.9429 78.8157 74.0086 78.8952 74.0914C78.9747 74.1742 79.0365 74.2724 79.0767 74.3799C79.1169 74.4874 79.1348 74.602 79.1291 74.7167Z" fill="#263238"/>
<path d="M78.5258 38.6876C79.7598 37.4809 79.8253 35.5466 78.672 34.3673C77.5188 33.188 75.5835 33.2103 74.3495 34.417C73.1155 35.6238 73.0501 37.558 74.2033 38.7373C75.3565 39.9166 77.2918 39.8944 78.5258 38.6876Z" fill="#4CAF4F"/>
<path d="M82.2366 43.5182C81.502 44.4805 80.5567 45.2618 79.4733 45.802C78.3898 46.3422 77.1969 46.627 75.9863 46.6345C74.8123 46.6444 73.6539 46.3654 72.6133 45.8219C71.5726 45.2784 70.6817 44.4873 70.019 43.5182C71.4519 42.0912 73.7191 41.1595 76.231 41.1595C78.7429 41.1595 80.9305 42.0912 82.2366 43.5182Z" fill="#4CAF4F"/>
<path opacity="0.1" d="M78.5258 38.6876C79.7598 37.4809 79.8253 35.5466 78.672 34.3673C77.5188 33.188 75.5835 33.2103 74.3495 34.417C73.1155 35.6238 73.0501 37.558 74.2033 38.7373C75.3565 39.9166 77.2918 39.8944 78.5258 38.6876Z" fill="white"/>
<path opacity="0.1" d="M82.2366 43.5182C81.502 44.4805 80.5567 45.2618 79.4733 45.802C78.3898 46.3422 77.1969 46.627 75.9863 46.6345C74.8123 46.6444 73.6539 46.3654 72.6133 45.8219C71.5726 45.2784 70.6817 44.4873 70.019 43.5182C71.4519 42.0912 73.7191 41.1595 76.231 41.1595C78.7429 41.1595 80.9305 42.0912 82.2366 43.5182Z" fill="white"/>
<path d="M38.8588 63.8641C38.5787 64.4773 38.2839 65.1525 38.0274 65.807C37.7709 66.4615 37.5085 67.1367 37.2815 67.8089C36.818 69.1336 36.4649 70.4945 36.226 71.8775L36.1611 72.3109C36.1549 72.3852 36.1619 72.4601 36.1818 72.532C36.2513 72.7763 36.3609 73.0075 36.5061 73.216C36.8847 73.7557 37.3239 74.2503 37.8151 74.6901C38.333 75.1718 38.8762 75.6255 39.4425 76.0493C40.0086 76.4856 40.6042 76.9101 41.1909 77.3111L40.6395 78.3459C39.2386 77.7355 37.9088 76.9733 36.6741 76.0728C36.0154 75.5924 35.4209 75.0297 34.9052 74.3982C34.5995 74.0224 34.3611 73.5964 34.2005 73.1393C34.1072 72.8538 34.0594 72.5553 34.059 72.2548C34.059 72.1841 34.059 72.0809 34.059 72.0308V71.8863L34.0885 71.5915C34.2575 70.0554 34.5805 68.5403 35.0526 67.0688C35.2826 66.3436 35.5273 65.6212 35.8073 64.9166C36.0874 64.212 36.3764 63.5221 36.7331 62.8057L38.8588 63.8641Z" fill="#E58A7B"/>
<path d="M40.7752 77.1283L42.8596 76.0728L42.3201 78.3607C42.3201 78.3607 40.8902 78.7617 40.2268 78.0659L40.7752 77.1283Z" fill="#E58A7B"/>
<path d="M44.7671 76.4473L44.2129 78.3401L42.3201 78.3607L42.8596 76.0728L44.7671 76.4473Z" fill="#E58A7B"/>
<path d="M47.7095 52.8258C47.821 53.2344 47.9762 53.6298 48.1724 54.0051C48.1151 54.0701 48.0412 54.1184 47.9587 54.1449C47.8762 54.1713 47.788 54.175 47.7036 54.1555L47.7095 52.8258Z" fill="#DF5753"/>
<path d="M47.6476 52.8435C47.7697 52.8435 47.8687 52.6917 47.8687 52.5044C47.8687 52.3172 47.7697 52.1654 47.6476 52.1654C47.5255 52.1654 47.4265 52.3172 47.4265 52.5044C47.4265 52.6917 47.5255 52.8435 47.6476 52.8435Z" fill="#263238"/>
<path d="M47.5827 52.1772L48.0309 52.0504C48.0309 52.0504 47.8127 52.3983 47.5827 52.1772Z" fill="#263238"/>
<path d="M41.9516 54.9898C42.2198 56.3607 42.4881 58.8756 41.527 59.7925C41.527 59.7925 41.9044 61.1841 44.4546 61.1841C47.2584 61.1841 45.7931 59.7925 45.7931 59.7925C44.263 59.4269 44.3013 58.2919 44.5696 57.2246L41.9516 54.9898Z" fill="#E58A7B"/>
<path d="M41.2056 51.8647C41.3471 54.1555 41.3589 55.1284 42.5147 56.3047C44.2571 58.0737 47.0402 57.4015 47.5857 55.1254C48.078 53.0617 47.7655 49.6653 45.5219 48.7543C45.0294 48.5514 44.4933 48.4775 43.9643 48.5396C43.4353 48.6017 42.9309 48.7977 42.4987 49.1091C42.0666 49.4205 41.7211 49.837 41.4948 50.3192C41.2685 50.8013 41.169 51.3333 41.2056 51.8647Z" fill="#E58A7B"/>
<path d="M41.4327 49.2879C40.2828 49.7065 38.7497 49.394 39.3512 52.9408C39.988 56.6969 39.0092 57.9322 39.0092 57.9322C39.0092 57.9322 43.3697 58.8609 47.8215 57.8762C47.8215 57.8762 46.4624 55.4999 46.8427 53.7486C47.3292 51.5374 46.9459 50.7207 46.9459 50.7207C46.9459 50.7207 43.0483 48.6982 41.4327 49.2879Z" fill="#263238"/>
<path d="M46.2973 53.0587C46.2985 53.4943 46.4232 53.9206 46.657 54.2881C46.9695 54.7658 47.338 54.583 47.4294 54.0759C47.512 53.6307 47.45 52.8435 47.052 52.5369C46.654 52.2303 46.3032 52.531 46.2973 53.0587Z" fill="#E58A7B"/>
<path d="M40.4332 49.6741C40.103 48.7454 41.6774 47.3155 45.0089 47.9052C48.3404 48.4948 48.4849 51.2691 48.4849 51.2691L47.8127 50.4672L47.8422 51.3104L44.4193 51.9679L40.4332 49.6741Z" fill="#263238"/>
<path d="M40.7162 59.9488C40.6966 59.8142 40.7303 59.6772 40.8101 59.5671C40.89 59.4569 41.0097 59.3823 41.1437 59.3592C42.1815 59.1882 44.5401 58.8403 45.7253 59.0054C46.6098 59.1292 46.8398 59.6422 46.8781 60.0638C46.8841 60.1376 46.8742 60.2119 46.8491 60.2816C46.8241 60.3512 46.7844 60.4148 46.7327 60.4678C46.681 60.5209 46.6186 60.5623 46.5496 60.5892C46.4806 60.6161 46.4066 60.628 46.3327 60.624L41.2086 60.394C41.0878 60.3879 40.9728 60.3403 40.8831 60.2591C40.7934 60.178 40.7344 60.0684 40.7162 59.9488Z" fill="#4CAF4F"/>
<path opacity="0.6" d="M40.7162 59.9488C40.6966 59.8142 40.7303 59.6772 40.8101 59.5671C40.89 59.4569 41.0097 59.3823 41.1437 59.3592C42.1815 59.1882 44.5401 58.8403 45.7253 59.0054C46.6098 59.1292 46.8398 59.6422 46.8781 60.0638C46.8841 60.1376 46.8742 60.2119 46.8491 60.2816C46.8241 60.3512 46.7844 60.4148 46.7327 60.4678C46.681 60.5209 46.6186 60.5623 46.5496 60.5892C46.4806 60.6161 46.4066 60.628 46.3327 60.624L41.2086 60.394C41.0878 60.3879 40.9728 60.3403 40.8831 60.2591C40.7934 60.178 40.7344 60.0684 40.7162 59.9488Z" fill="black"/>
<path d="M43.6792 111.455L45.5809 112.776L48.762 108.462L46.8604 107.145L43.6792 111.455Z" fill="#E58A7B"/>
<path d="M39.245 111.369L41.2528 112.513L44.0684 107.952L42.0606 106.808L39.245 111.369Z" fill="#E58A7B"/>
<path d="M48.7591 108.462L47.1199 110.685L45.2182 109.368L46.8575 107.145L48.7591 108.462Z" fill="#CF6F64"/>
<path d="M42.0577 106.808L44.0684 107.955L42.6179 110.305L40.6071 109.158L42.0577 106.808Z" fill="#CF6F64"/>
<path d="M45.2831 74.3481C45.2831 74.3481 52.7068 83.7029 51.3123 92.6509C50.189 99.8771 43.6733 109.662 43.6733 109.662L40.6101 108.141C42.7692 103.815 44.6118 99.3372 46.1233 94.7442C46.5894 93.3182 46.7255 91.805 46.5212 90.3187C46.3169 88.8325 45.7776 87.4121 44.944 86.1647C41.1821 80.6721 35.1558 83.9418 39.2097 74.3481H45.2831Z" fill="#4CAF4F"/>
<path opacity="0.6" d="M45.2831 74.3481C45.2831 74.3481 52.7068 83.7029 51.3123 92.6509C50.189 99.8771 43.6733 109.662 43.6733 109.662L40.6101 108.141C42.7692 103.815 44.6118 99.3372 46.1233 94.7442C46.5894 93.3182 46.7255 91.805 46.5212 90.3187C46.3169 88.8325 45.7776 87.4121 44.944 86.1647C41.1821 80.6721 35.1558 83.9418 39.2097 74.3481H45.2831Z" fill="black"/>
<path opacity="0.4" d="M48.9242 80.3566L47.8451 79.2835C47.8451 79.369 49.9354 92.2735 50.5221 95.8999C50.8684 94.8405 51.1335 93.7564 51.3152 92.6568C52.0051 88.2668 50.5634 83.7825 48.9242 80.3566Z" fill="black"/>
<path d="M48.5969 74.3481C48.5969 74.3481 57.536 86.1058 57.7896 93.1551C57.9989 99.0516 48.0603 110.476 48.0603 110.476L45.171 108.607C45.171 108.607 50.988 100.493 52.4532 93.8656C51.8872 87.2969 39.9172 74.3481 39.9172 74.3481H48.5969Z" fill="#4CAF4F"/>
<path opacity="0.6" d="M48.5969 74.3481C48.5969 74.3481 57.536 86.1058 57.7896 93.1551C57.9989 99.0516 48.0603 110.476 48.0603 110.476L45.171 108.607C45.171 108.607 50.988 100.493 52.4532 93.8656C51.8872 87.2969 39.9172 74.3481 39.9172 74.3481H48.5969Z" fill="black"/>
<path d="M37.538 60.3173C36.5828 60.5443 35.6659 64.0174 35.6659 64.0174L39.4013 66.5116C39.4013 66.5116 40.6455 63.7638 40.2091 62.561C39.7581 61.3079 38.738 60.0313 37.538 60.3173Z" fill="#4CAF4F"/>
<path opacity="0.2" d="M38.2692 62.5551L38.0097 65.5829L39.3984 66.5146C39.7818 65.6514 40.0657 64.7473 40.2445 63.8199L38.2692 62.5551Z" fill="black"/>
<path d="M49.7025 60.3851C49.7025 60.3851 50.8052 60.7714 48.5969 74.3451H39.2038C39.363 70.5124 39.3659 68.1538 37.538 60.3173C38.8532 60.0463 40.1864 59.8709 41.527 59.7925C42.9472 59.6907 44.3729 59.6907 45.7931 59.7925C47.6269 59.9606 49.7025 60.3851 49.7025 60.3851Z" fill="#4CAF4F"/>
<path d="M50.6578 62.555C50.87 63.1447 51.0941 63.7786 51.33 64.3889C51.5658 64.9991 51.7899 65.6271 52.0287 66.2463L52.751 68.0978L52.9338 68.5606L53.0282 68.7906L53.0724 68.9056C53.0724 68.9262 53.0724 68.9262 53.0724 68.9233C53.0185 68.8473 52.9479 68.7848 52.866 68.7405C52.7494 68.6719 52.6179 68.6324 52.4827 68.6255C52.3704 68.622 52.2587 68.6431 52.1555 68.6874C52.0198 68.7493 52.0198 68.7759 52.0228 68.7729C52.0473 68.7533 52.0691 68.7305 52.0877 68.7051C52.2509 68.4908 52.3921 68.2607 52.5093 68.0182C52.6478 67.7469 52.7805 67.458 52.9132 67.1661C53.1726 66.5765 53.4114 65.9662 53.6502 65.35C53.889 64.7338 54.1161 64.1117 54.3372 63.4837L55.0094 61.6028L56.1445 61.8976C55.9204 63.242 55.6315 64.551 55.2836 65.8836C55.1155 66.547 54.918 67.2044 54.6939 67.8678C54.5819 68.201 54.4581 68.5312 54.3165 68.8702C54.169 69.2382 53.9874 69.5916 53.7741 69.9257C53.6956 70.0382 53.6089 70.1446 53.5146 70.2441C53.3641 70.4067 53.1813 70.5362 52.978 70.6244C52.7976 70.7019 52.6022 70.7381 52.4061 70.7306C52.1863 70.7224 51.9723 70.6585 51.784 70.5448C51.5619 70.4062 51.3775 70.2148 51.2474 69.9876C51.2032 69.911 51.1649 69.8343 51.1383 69.7783L51.0823 69.6662L50.9703 69.4363L50.7462 68.9793C50.4514 68.3661 50.1565 67.7469 49.9001 67.1248C49.6436 66.5028 49.3723 65.8718 49.1188 65.238C48.8652 64.6041 48.6382 63.9702 48.423 63.2862L50.6578 62.555Z" fill="#E58A7B"/>
<path d="M49.7025 60.3852C50.8317 60.6534 52.1024 63.9909 52.1024 63.9909L48.7443 66.8477C48.7443 66.8477 46.5715 63.2096 47.0108 62.0096C47.4677 60.7596 48.2284 60.0343 49.7025 60.3852Z" fill="#4CAF4F"/>
<path d="M55.543 60.5473L56.7223 59.5626L57.542 60.8392L56.9376 61.9035C56.9376 61.9035 55.9764 62.788 55.1273 62.3369C54.9926 62.034 54.9602 61.6954 55.0353 61.3724C55.1103 61.0495 55.2885 60.7598 55.543 60.5473Z" fill="#E58A7B"/>
<path d="M58.851 59.5655L58.7625 59.8869L56.8963 60.1994L56.7135 59.5626L58.851 59.5655Z" fill="#E58A7B"/>
<path d="M48.2903 110.626L44.9234 108.451L45.5278 107.401L49.3104 109.727L48.2903 110.626Z" fill="#4CAF4F"/>
<path d="M42.5707 112.36C42.2753 112.324 41.9914 112.223 41.7393 112.065C41.7289 112.062 41.7198 112.055 41.7135 112.046C41.7071 112.037 41.7036 112.026 41.7036 112.015C41.7036 112.004 41.7071 111.993 41.7135 111.984C41.7198 111.975 41.7289 111.969 41.7393 111.965C41.8307 111.936 42.6238 111.691 42.8537 111.879C42.8796 111.901 42.8992 111.929 42.9106 111.961C42.922 111.992 42.9248 112.026 42.9186 112.059C42.9145 112.112 42.8969 112.164 42.8675 112.208C42.8381 112.252 42.7978 112.288 42.7505 112.313C42.6953 112.343 42.6336 112.359 42.5707 112.36ZM41.9073 112.036C42.2759 112.224 42.5707 112.292 42.7122 112.221C42.743 112.204 42.7689 112.18 42.7875 112.15C42.8061 112.12 42.8167 112.086 42.8183 112.05C42.8183 112.003 42.8183 111.983 42.7918 111.971C42.668 111.871 42.2257 111.947 41.9014 112.036H41.9073Z" fill="#263238"/>
<path d="M41.7599 112.086C41.7444 112.086 41.7295 112.079 41.7186 112.068C41.7142 112.06 41.7119 112.051 41.7119 112.042C41.7119 112.032 41.7142 112.023 41.7186 112.015C41.7186 111.989 41.9103 111.349 42.211 111.204C42.2494 111.187 42.2911 111.178 42.3333 111.178C42.3756 111.178 42.4173 111.187 42.4557 111.204C42.4971 111.217 42.5329 111.244 42.5575 111.28C42.5821 111.316 42.594 111.359 42.5913 111.402C42.5707 111.667 42.0311 112.033 41.7835 112.095L41.7599 112.086ZM42.3319 111.281C42.3032 111.282 42.275 111.289 42.2493 111.302C42.0665 111.39 41.9162 111.735 41.8425 111.944C42.1019 111.835 42.4586 111.546 42.4704 111.384C42.4704 111.358 42.4704 111.325 42.4026 111.296C42.3806 111.284 42.3566 111.276 42.3319 111.272V111.281Z" fill="#263238"/>
<path d="M46.7778 113.634C46.4447 113.634 45.9818 113.206 45.7283 112.944C45.7218 112.935 45.7183 112.924 45.7183 112.913C45.7183 112.902 45.7218 112.891 45.7283 112.882C45.7341 112.872 45.7424 112.865 45.7522 112.859C45.7621 112.854 45.7731 112.852 45.7843 112.852C45.9022 112.852 46.9252 113.006 47.0697 113.295C47.085 113.321 47.0931 113.35 47.0931 113.38C47.0931 113.41 47.085 113.44 47.0697 113.466C47.048 113.511 47.0153 113.549 46.9746 113.578C46.9338 113.607 46.8864 113.625 46.8368 113.631L46.7778 113.634ZM45.9228 112.985C46.2943 113.345 46.6216 113.545 46.8073 113.522C46.8398 113.517 46.8708 113.505 46.8976 113.486C46.9243 113.467 46.9459 113.442 46.9606 113.413C46.9672 113.402 46.9707 113.391 46.9707 113.379C46.9707 113.367 46.9672 113.355 46.9606 113.345C46.884 113.186 46.3385 113.05 45.9228 112.985Z" fill="#263238"/>
<path d="M45.9553 112.97C45.8891 112.972 45.8229 112.967 45.7578 112.956C45.7487 112.954 45.7401 112.95 45.7328 112.945C45.7256 112.939 45.72 112.932 45.7165 112.923C45.7121 112.914 45.7098 112.905 45.7098 112.895C45.7098 112.885 45.7121 112.876 45.7165 112.867C45.7342 112.846 46.1322 112.366 46.5096 112.333C46.6164 112.325 46.7222 112.359 46.8044 112.428C46.9194 112.528 46.9135 112.617 46.884 112.673C46.8103 112.873 46.3002 112.97 45.9553 112.97ZM45.8786 112.861C46.2088 112.879 46.7366 112.77 46.8044 112.625C46.8044 112.625 46.828 112.578 46.7513 112.513C46.7208 112.487 46.6852 112.467 46.6466 112.455C46.6081 112.442 46.5675 112.438 46.5272 112.443C46.273 112.514 46.0467 112.661 45.8786 112.864V112.861Z" fill="#263238"/>
<path d="M41.8395 111.767L39.3394 111.06C39.2963 111.047 39.2499 111.05 39.2091 111.069C39.1683 111.088 39.1359 111.122 39.1183 111.163L38.2751 113.059C38.2553 113.107 38.246 113.16 38.2478 113.212C38.2496 113.264 38.2625 113.316 38.2856 113.363C38.3087 113.41 38.3415 113.452 38.3819 113.485C38.4223 113.518 38.4692 113.543 38.5198 113.557C39.4042 113.787 39.8288 113.852 40.9285 114.167C41.6066 114.356 42.5736 114.707 43.5082 114.972C44.4428 115.238 44.7553 114.327 44.3927 114.132C42.7535 113.265 42.6237 112.658 42.1756 112.009C42.0954 111.892 41.9764 111.806 41.8395 111.767Z" fill="#4CAF4F"/>
<path d="M45.7961 112.599L43.6615 111.125C43.6253 111.098 43.5807 111.086 43.5362 111.091C43.4916 111.095 43.4502 111.115 43.4198 111.148L42.0046 112.67C41.9701 112.709 41.9444 112.755 41.9292 112.805C41.9139 112.855 41.9095 112.908 41.9162 112.96C41.9229 113.012 41.9405 113.061 41.968 113.106C41.9954 113.151 42.032 113.189 42.0754 113.218C42.8272 113.722 43.2163 113.926 44.1568 114.577C44.7465 114.978 45.8875 115.868 46.6835 116.423C47.4795 116.977 48.0721 116.216 47.7891 115.916C46.5213 114.562 46.2442 113.713 46.0349 112.944C45.9985 112.804 45.9139 112.682 45.7961 112.599Z" fill="#4CAF4F"/>
<path d="M44.0654 109.857L40.218 107.944L40.616 106.9L44.7258 108.916L44.0654 109.857Z" fill="#4CAF4F"/>
<path d="M39.0623 73.7938L38.7379 74.6429C38.7055 74.7078 38.7822 74.7756 38.8913 74.7756H48.6441C48.7296 74.7756 48.8004 74.7343 48.8063 74.6813L48.8888 73.8381C48.8888 73.7821 48.821 73.7319 48.7296 73.7319H39.2156C39.1869 73.7292 39.158 73.7335 39.1314 73.7442C39.1047 73.755 39.081 73.772 39.0623 73.7938Z" fill="#4CAF4F"/>
<path opacity="0.4" d="M39.0623 73.7938L38.7379 74.6429C38.7055 74.7078 38.7822 74.7756 38.8913 74.7756H48.6441C48.7296 74.7756 48.8004 74.7343 48.8063 74.6813L48.8888 73.8381C48.8888 73.7821 48.821 73.7319 48.7296 73.7319H39.2156C39.1869 73.7292 39.158 73.7335 39.1314 73.7442C39.1047 73.755 39.081 73.772 39.0623 73.7938Z" fill="white"/>
<path d="M40.5983 74.8581H40.3418C40.2917 74.8581 40.2533 74.8316 40.2563 74.7992L40.3772 73.7054C40.3772 73.6759 40.4243 73.6494 40.4745 73.6494H40.731C40.7811 73.6494 40.8194 73.6759 40.8165 73.7054L40.6956 74.7992C40.6926 74.8316 40.6484 74.8581 40.5983 74.8581Z" fill="#4CAF4F"/>
<path d="M46.6127 74.8581H46.3592C46.3091 74.8581 46.2707 74.8316 46.2737 74.7992L46.3916 73.7054C46.3916 73.6759 46.4417 73.6494 46.4919 73.6494H46.7454C46.7955 73.6494 46.8368 73.6759 46.8309 73.7054L46.713 74.7992C46.6982 74.8316 46.6658 74.8581 46.6127 74.8581Z" fill="#4CAF4F"/>
<g style="mix-blend-mode:multiply">
<path d="M40.3742 124.787C44.7364 124.787 48.2726 124.531 48.2726 124.215C48.2726 123.899 44.7364 123.643 40.3742 123.643C36.0121 123.643 32.4758 123.899 32.4758 124.215C32.4758 124.531 36.0121 124.787 40.3742 124.787Z" fill="#F5F5F5"/>
</g>
<path d="M45.1858 123.407C43.7883 123 42.2375 122.478 41.3 121.933C41.2734 121.915 41.244 121.907 41.2174 121.892V115.565H44.0448C44.2594 115.552 44.4611 115.458 44.6086 115.301C44.756 115.145 44.8382 114.938 44.8382 114.723C44.8382 114.508 44.756 114.301 44.6086 114.145C44.4611 113.988 44.2594 113.894 44.0448 113.881H41.2322V85.0414H39.534V113.881H36.7243C36.6095 113.875 36.4946 113.891 36.3866 113.931C36.2786 113.97 36.1797 114.031 36.0961 114.109C36.0125 114.188 35.9458 114.283 35.9003 114.389C35.8547 114.494 35.8312 114.608 35.8312 114.723C35.8312 114.838 35.8547 114.952 35.9003 115.057C35.9458 115.163 36.0125 115.258 36.0961 115.337C36.1797 115.415 36.2786 115.476 36.3866 115.516C36.4946 115.555 36.6095 115.572 36.7243 115.565H39.534V121.883C39.5074 121.883 39.4809 121.906 39.4544 121.924C38.5021 122.478 36.9631 123 35.5656 123.398C35.4712 123.427 35.3901 123.488 35.3371 123.571C35.2841 123.655 35.2625 123.754 35.2764 123.852C35.2903 123.949 35.3387 124.039 35.4129 124.104C35.487 124.169 35.582 124.205 35.6806 124.206H45.0708C45.165 124.2 45.2542 124.161 45.3235 124.097C45.3927 124.033 45.4378 123.947 45.4513 123.853C45.4647 123.76 45.4457 123.664 45.3974 123.583C45.3491 123.502 45.2744 123.44 45.1858 123.407Z" fill="#E0E0E0"/>
<path d="M45.6192 82.105H35.1352C34.2917 82.105 33.608 82.7887 33.608 83.6322V86.7485C33.608 87.5919 34.2917 88.2757 35.1352 88.2757H45.6192C46.4626 88.2757 47.1464 87.5919 47.1464 86.7485V83.6322C47.1464 82.7887 46.4626 82.105 45.6192 82.105Z" fill="#4CAF4F"/>
<path d="M35.0378 88.2786V88.8152C35.0378 89.2575 35.5184 89.6171 36.1081 89.6171H44.658C45.2477 89.6171 45.7282 89.2575 45.7282 88.8152V88.2786H35.0378Z" fill="#4CAF4F"/>
<path opacity="0.3" d="M35.0378 88.2786V88.8152C35.0378 89.2575 35.5184 89.6171 36.1081 89.6171H44.658C45.2477 89.6171 45.7282 89.2575 45.7282 88.8152V88.2786H35.0378Z" fill="white"/>
</svg>
